<svg width="50" height="50" viewBox="0 0 50 50" fill="none" xmlns="http://www.w3.org/2000/svg">
<path d="M49.75 25.0836C49.4831 24.4833 49.0374 24.0164 48.5029 23.7176L48.9524 20.6014C49.0102 20.201 48.7323 19.8296 48.3319 19.7718C47.9321 19.7142 47.5602 19.9919 47.5024 20.3923L47.0769 23.3419C46.6773 23.3397 46.2713 23.4186 45.8831 23.5898L42.8086 24.9448L45.964 13.829C46.114 13.3004 46.6027 12.9312 47.1522 12.9312C47.511 12.9312 47.8513 13.0867 48.0862 13.3578C48.3208 13.6287 48.4259 13.9875 48.3749 14.3424L47.9904 17.0082C47.9326 17.4086 48.2105 17.78 48.6109 17.8378C49.0123 17.8958 49.3827 17.6177 49.4404 17.2173L49.8249 14.5515C49.9368 13.7758 49.7067 12.9911 49.1935 12.3986C48.6803 11.8061 47.9363 11.4662 47.1523 11.4662C45.951 11.4662 44.8829 12.2733 44.5547 13.4289L41.5402 24.0481V19.9297C41.5402 18.8911 41.1999 17.9353 40.6256 17.1709C40.6248 17.1703 38.5032 8.79698 38.4979 8.7836C38.0195 6.8051 36.302 5.33644 34.2619 5.33644C32.2629 5.33644 30.5745 6.74699 30.0571 8.66503C30.0428 8.69862 28.4513 14.6645 28.4368 14.7121C27.7601 13.4898 26.4665 12.6613 24.984 12.6613C24.0176 12.6613 23.1315 13.0138 22.4439 13.5975C21.5984 12.8583 20.5106 12.4427 19.373 12.4427H18.8206V10.8578C19.5711 9.88668 20.1014 8.35248 20.0767 7.06578C20.0703 6.66533 19.7436 6.34517 19.3445 6.34517C19.3405 6.34517 19.3365 6.34517 19.3324 6.34527C18.9278 6.35181 18.6053 6.68506 18.6119 7.08961C18.659 8.81866 17.3616 10.8989 16.2279 10.895C15.0914 10.895 13.8435 8.9342 13.8435 7.14841C13.8435 5.39035 15.0752 4.764 16.2279 4.764C16.6315 4.764 17.0032 4.83705 17.3326 4.98102C17.7032 5.14296 18.135 4.97408 18.2973 4.60333C18.4593 4.23267 18.2902 3.80078 17.9196 3.63874C17.404 3.41322 16.8349 3.29895 16.228 3.29895C13.9615 3.29895 12.3786 4.88188 12.3786 7.14841C12.3786 8.46451 12.8808 9.89635 13.689 10.926V12.4428H13.1365C10.61 12.4428 8.54728 14.4613 8.47305 16.9703C8.47305 16.9703 8.47334 23.8795 8.45967 24.0484L7.34965 20.1382C7.23918 19.749 6.83356 19.5229 6.44493 19.6335C6.05572 19.744 5.82981 20.149 5.94027 20.5383L7.19123 24.9448L4.11668 23.5898C3.72844 23.4187 3.32243 23.3397 2.92286 23.3419L1.62503 14.3424C1.57394 13.9876 1.67913 13.6288 1.91374 13.3578C2.14854 13.0867 2.48892 12.9312 2.84766 12.9312C3.39724 12.9312 3.88589 13.3004 4.03591 13.829L5.02345 17.3078C5.13391 17.6969 5.53924 17.9229 5.92816 17.8125C6.31738 17.702 6.54329 17.297 6.43282 16.9078L5.44528 13.429C5.11721 12.2733 4.049 11.4663 2.84766 11.4663C2.06366 11.4663 1.31961 11.8062 0.806456 12.3987C0.293298 12.9912 0.0631884 13.776 0.175118 14.5516L1.49698 23.7176C0.962532 24.0164 0.516767 24.4832 0.249933 25.0836C-0.366754 26.4711 0.194652 28.127 1.52804 28.8535L2.27336 29.2595L2.57526 31.4266C2.77108 32.8324 3.62579 34.0888 4.86161 34.7872L11.6977 38.6506V40.9006C10.8687 41.0179 10.2284 41.7302 10.2284 42.591V44.9919C10.2284 45.9343 10.9952 46.7012 11.9376 46.7012H38.0623C39.0047 46.7012 39.7715 45.9343 39.7715 44.9919V42.591C39.7715 41.7302 39.1312 41.0178 38.3022 40.9006V38.6506L45.1383 34.7872C46.3741 34.0888 47.2288 32.8324 47.4246 31.4266L47.7265 29.2595L48.4719 28.8535C49.8052 28.127 50.3666 26.4711 49.75 25.0836ZM25.7495 45.236H24.2503C24.2619 45.156 24.2699 45.075 24.2699 44.9918V42.5909C24.2699 42.5078 24.2619 42.4267 24.2503 42.3467H25.7495C25.7379 42.4267 25.7299 42.5078 25.7299 42.5909V44.9918C25.7299 45.075 25.7379 45.1561 25.7495 45.236ZM19.4569 29.0394V27.253H20.5208C20.6884 27.253 20.8248 27.3893 20.8248 27.557V30.1705C20.4174 29.7358 19.957 29.3562 19.4569 29.0394ZM33.1454 15.2153C33.5079 15.353 33.8822 15.4249 34.2619 15.4249C34.6306 15.4249 34.9944 15.3578 35.347 15.2279V16.1744C35.347 16.7813 34.8532 17.2752 34.2462 17.2752C33.6391 17.2752 33.1453 16.7814 33.1453 16.1744V15.2153H33.1454ZM36.812 14.2534C37.0297 14.0345 37.2375 13.7882 37.4318 13.5126C37.6299 13.2317 37.8062 12.9306 37.9596 12.6179L38.7456 15.7175C38.3751 15.5693 37.7043 15.3881 37.0694 15.3934H36.812V14.2534ZM34.2619 13.9599C32.9684 13.9599 31.7953 12.352 31.4562 10.776C31.5746 10.7863 31.6927 10.7917 31.81 10.7917C32.6109 10.7917 33.3755 10.5507 33.9428 10.09C34.1335 9.93512 34.3901 9.93503 34.5809 10.09C35.2313 10.6183 36.1411 10.8561 37.0677 10.7746C36.7291 12.351 35.5556 13.9599 34.2619 13.9599ZM31.0919 13.5125C31.277 13.7749 31.4742 14.0106 31.6804 14.2217V15.3935H31.4229C30.8136 15.3935 30.2247 15.5102 29.6816 15.7276L30.532 12.5504C30.6925 12.8872 30.8796 13.2115 31.0919 13.5125ZM24.0233 21.2367C24.3297 21.341 24.6512 21.3991 24.984 21.3991C25.3214 21.3991 25.647 21.3397 25.9571 21.2328V21.9851C25.9571 22.5182 25.5235 22.952 24.9903 22.952C24.4571 22.952 24.0234 22.5182 24.0234 21.9851L24.0233 21.2367ZM22.5583 20.2878V21.0728C21.866 21.0875 21.2101 21.2526 20.623 21.5385V19.2698C20.623 19.1314 20.7356 19.0187 20.8741 19.0187H21.642C21.8865 19.4882 22.1964 19.9222 22.5583 20.2878ZM19.4569 25.7373C19.4569 23.984 20.8735 22.5561 22.6222 22.5362C22.8726 23.6124 23.8389 24.4169 24.9904 24.4169C26.1417 24.4169 27.1081 23.6124 27.3586 22.5362C29.0835 22.5456 30.5494 24.0223 30.5239 25.7878H29.4599C28.4845 25.7878 27.6909 26.5814 27.6909 27.5569V32.0993H22.2899V27.5569C22.2899 26.5815 21.4963 25.7878 20.5209 25.7878H19.457L19.4569 25.7373ZM27.1993 35.1248V40.8818H22.8005V35.1248C22.8005 34.5986 22.7405 34.0753 22.626 33.5645H27.3737C27.2593 34.0753 27.1993 34.5986 27.1993 35.1248ZM29.1558 27.557C29.1558 27.3894 29.2921 27.253 29.4597 27.253H30.5237V29.0518C30.0231 29.3711 29.5627 29.7535 29.1558 30.1913V27.557ZM31.9887 25.7373C31.9887 23.1976 29.9493 21.1266 27.4222 21.0728V20.275C27.8334 19.893 28.2448 19.2411 28.5696 18.6057C29.1203 17.528 30.2137 16.8584 31.4229 16.8584H31.7737C32.074 17.9421 33.0684 18.7402 34.2463 18.7402C35.4241 18.7402 36.4185 17.9421 36.7188 16.8584H37.0695C38.5102 16.8327 39.8671 18.0515 40.0491 19.5363L38.6424 20.4954C37.5916 21.2116 36.9644 22.3984 36.9644 23.6699V27.4468C36.3415 27.6384 35.7006 27.768 35.0489 27.8333L33.5996 27.9785C33.0475 28.0338 32.5073 28.1572 31.9889 28.339V25.7373H31.9887ZM38.4294 23.6699C38.4294 22.8833 38.8175 22.149 39.4675 21.7059L40.0752 21.2916V26.1495L38.4294 26.8748V23.6699ZM34.2619 6.80139C35.6689 6.80139 36.845 7.87527 37.1097 9.29539C36.4996 9.39032 35.8944 9.26941 35.5046 8.95276C34.7729 8.35854 33.751 8.35854 33.0192 8.95276C32.6293 9.26941 32.0242 9.39032 31.4141 9.29548C31.6786 7.87527 32.8548 6.80139 34.2619 6.80139ZM24.984 14.1261C26.3562 14.1261 27.4725 15.2599 27.4725 16.6534C27.4725 18.0994 26.3009 19.9339 24.984 19.9339C23.6673 19.9339 22.4957 18.0994 22.4957 16.6534C22.4958 15.2599 23.6121 14.1261 24.984 14.1261ZM17.3556 12.1V13.2235C17.3556 13.8304 16.8618 14.3243 16.2548 14.3243C15.6478 14.3243 15.154 13.8305 15.154 13.2235V12.1236C15.4935 12.2745 15.8532 12.3599 16.2279 12.3599C16.6225 12.3599 17.0006 12.2662 17.3556 12.1ZM13.1365 13.9076H13.7824C14.0826 14.9913 15.077 15.7894 16.2549 15.7894C17.4328 15.7894 18.4272 14.9913 18.7274 13.9076H19.3732C20.171 13.9076 20.9334 14.2054 21.5189 14.7342C21.2081 15.3041 21.0308 15.9583 21.0308 16.6536C21.0308 16.9496 21.0633 17.252 21.123 17.5538H20.8743C19.9281 17.5538 19.1581 18.3236 19.1581 19.2699V22.6561C18.4331 23.4788 17.992 24.5573 17.992 25.7374V28.3325C17.4795 28.1543 16.9458 28.0331 16.4006 27.9784L14.9513 27.8333C14.407 27.7787 13.8706 27.6783 13.3456 27.5355L13.3473 19.2699C13.3473 18.3237 12.5774 17.5538 11.6312 17.5538L9.93487 17.5518V17.1097C9.93448 15.3441 11.3709 13.9076 13.1365 13.9076ZM9.92471 19.0187H11.6309C11.7693 19.0187 11.8819 19.1313 11.8819 19.2696L11.8804 27.0114L9.92471 26.1495V19.0187ZM22.5581 45.236H11.9375C11.8028 45.236 11.6933 45.1264 11.6933 44.9918V42.5909C11.6933 42.4563 11.8028 42.3467 11.9375 42.3467H15.796C16.2007 42.3467 16.5286 42.0188 16.5286 41.6142C16.5286 41.2097 16.2007 40.8817 15.796 40.8817H13.1627V38.2231C13.1627 37.959 13.0205 37.7153 12.7905 37.5854L5.58231 33.5118C4.74118 33.0365 4.15936 32.1814 4.02614 31.2246L3.87387 30.1318L8.32088 32.5547C8.676 32.7481 9.12099 32.6172 9.31457 32.2619C9.50805 31.9066 9.37708 31.4617 9.02176 31.2682L2.22863 27.5671C1.56076 27.2031 1.27947 26.3737 1.5884 25.6788C1.91667 24.9401 2.78573 24.6045 3.52568 24.9305L11.3636 28.3849C12.4574 28.867 13.6152 29.1719 14.8047 29.2911L16.254 29.4364C19.0606 29.6823 21.3385 32.2365 21.3352 35.125V40.882H19.2205C18.8159 40.882 18.488 41.21 18.488 41.6145C18.488 42.0191 18.8159 42.347 19.2205 42.347H22.5579H22.5604C22.695 42.347 22.8045 42.4566 22.8045 42.5912V44.9921C22.8045 45.1267 22.695 45.2363 22.5604 45.2363H22.5581V45.236ZM38.3065 44.9918C38.3065 45.1264 38.197 45.236 38.0623 45.236H27.4417H27.4393C27.3046 45.236 27.1951 45.1264 27.1951 44.9918V42.5909C27.1951 42.4563 27.3046 42.3467 27.4393 42.3467H27.4417H38.0623C38.197 42.3467 38.3065 42.4563 38.3065 42.5909V44.9918ZM47.771 27.567L40.9778 31.2681C40.6225 31.4616 40.4916 31.9065 40.685 32.2618C40.8785 32.6169 41.3233 32.748 41.6787 32.5546L46.1257 30.1317L45.9735 31.2246C45.8403 32.1814 45.2585 33.0364 44.4173 33.5118L37.2091 37.5854C36.9791 37.7154 36.8369 37.959 36.8369 38.2231V40.8817H28.6641V35.1247C28.6146 32.3888 30.8849 29.6684 33.7453 29.4361L35.1946 29.2908C36.3842 29.1716 37.5419 28.8668 38.6357 28.3847L46.4736 24.9303C47.2137 24.6041 48.0825 24.94 48.4109 25.6786C48.7201 26.3736 48.4388 27.2031 47.771 27.567Z" fill="#00BB98"/>
</svg>
