<svg width="50" height="50" viewBox="0 0 50 50" fill="none" xmlns="http://www.w3.org/2000/svg">
<path d="M49.0231 25.6653H46.56C46.259 25.6653 45.9748 25.8041 45.7898 26.0414L44.3043 27.9461C43.9725 28.3714 44.0484 28.9848 44.4737 29.3167C44.6522 29.4559 44.8636 29.5231 45.0738 29.5231C45.3644 29.5231 45.6517 29.3941 45.8443 29.1473L47.0368 27.6188H49.0231C49.5625 27.6188 49.9997 27.1816 49.9997 26.6422C49.9997 26.1028 49.5625 25.6653 49.0231 25.6653Z" fill="#00BB98"/>
<path d="M41.0674 33.6837C40.642 33.3522 40.0286 33.4278 39.6968 33.8531L38.3235 35.614H34.048L30.633 23.9135C31.6287 23.5347 32.3378 22.5708 32.3378 21.4439C32.3378 19.9875 31.153 18.8022 29.6962 18.8022H29.1411L28.4335 16.3772C28.282 15.8596 27.7396 15.5624 27.2223 15.7135C26.7047 15.8645 26.4075 16.4066 26.5586 16.9243L27.1067 18.8022H26.586L22.9579 15.3396C23.0349 15.2912 23.1116 15.2412 23.1864 15.1882C24.219 14.4573 24.9049 13.3682 25.1178 12.1212C25.331 10.8745 25.0457 9.61951 24.3148 8.58725C23.5839 7.55462 22.4948 6.86911 21.2478 6.65587C18.674 6.21566 16.2223 7.95211 15.7824 10.5259C15.5169 12.0785 16.0445 13.5864 17.0695 14.6355C16.7975 14.7632 16.5419 14.912 16.3043 15.0799C15.8465 14.1231 14.9611 13.393 13.8575 13.195C12.9802 13.0379 12.0948 13.2347 11.3639 13.7501C10.617 14.2769 10.1214 15.0696 9.96961 15.982C9.87195 16.5676 9.92803 17.1451 10.1081 17.6716C10.0604 17.6945 10.0142 17.72 9.97075 17.7505C9.75789 17.8993 9.61293 18.127 9.5683 18.3834L8.19616 26.2615C7.94935 27.6806 8.86296 29.0352 10.2328 29.2804L11.8773 29.5753C12.0257 29.602 12.173 29.615 12.3187 29.615C12.4282 29.615 12.5358 29.6055 12.6422 29.5913L12.3378 34.2651L9.9677 39.1536C9.74301 39.6179 9.62896 40.1142 9.62896 40.628C9.62896 41.1289 9.7434 41.6153 9.94939 42.0562H8.81566C8.62951 42.0562 8.44716 42.1096 8.29038 42.2096L0.451565 47.2084C-0.00314689 47.4983 -0.136661 48.1021 0.153256 48.5569C0.339413 48.8487 0.655269 49.0085 0.977611 49.0085C1.15728 49.0085 1.33886 48.9589 1.50175 48.8552L9.10024 44.0094H12.8188C12.8825 44.0132 12.9458 44.0151 13.0092 44.0151C13.0618 44.0151 13.1141 44.012 13.1663 44.0094H23.5789C23.8292 44.0094 24.0699 43.9132 24.2514 43.7408L30.749 37.5675H33.3094H33.3152H33.3186H38.8003C39.1009 37.5675 39.3851 37.4286 39.5701 37.1914L41.2367 35.0547C41.5686 34.629 41.4927 34.0156 41.0674 33.6837ZM16.6354 30.0914C16.2574 30.0266 15.8389 29.9987 15.4952 29.8179C14.8875 29.4979 14.5793 28.8196 14.6918 28.1517C14.7231 27.9667 14.7551 27.7813 14.7868 27.5963C17.6196 27.4646 19.596 26.6681 20.9201 25.8182L20.6912 27.1579C20.6179 27.5871 20.8377 28.0132 21.2298 28.2024L24.7062 29.8774L28.7455 34.9765C29.2361 35.5961 29.1316 36.499 28.5121 36.9896C27.8929 37.4801 26.99 37.3752 26.4994 36.7561L23.0082 32.3494C22.9167 32.2334 22.7996 32.1399 22.6668 32.0758L19.7245 30.6579C19.6421 30.6183 19.5548 30.5904 19.4651 30.5751L16.6354 30.0914ZM30.2764 33.7639L26.097 28.4877C26.0283 28.4015 25.9463 28.3283 25.8548 28.2703C25.8227 28.2501 25.7888 28.231 25.7537 28.2142L22.7404 26.762L23.1978 24.0856H28.6486L32.0132 35.614H30.9977C30.95 34.9609 30.7132 34.3147 30.2764 33.7639ZM26.195 20.7554H28.4026C28.4045 20.7554 28.4064 20.7557 28.4083 20.7557C28.4095 20.7557 28.4106 20.7554 28.4117 20.7554H29.6962C30.0761 20.7554 30.3847 21.0644 30.3847 21.4439C30.3847 21.8235 30.0761 22.1325 29.6962 22.1325H29.3994C29.3982 22.1325 29.3971 22.1325 29.3963 22.1325H22.7366L20.7621 20.4307C20.3532 20.079 19.7367 20.1248 19.3847 20.5333C19.0326 20.9419 19.0783 21.5584 19.4869 21.9105L21.0315 23.2414C20.2586 24.044 18.4951 25.3662 15.1248 25.6195L15.4837 23.5195L16.162 19.553C16.1624 19.5503 16.1624 19.5476 16.1628 19.545L16.3638 18.3685C16.5587 17.2291 17.5307 16.0324 19.6704 16.0324C19.7196 16.0324 19.7692 16.0332 19.8199 16.0343C19.8279 16.0347 19.8363 16.0347 19.8443 16.0347C20.5142 16.0347 21.1161 16.2659 21.5384 16.6851C21.551 16.6977 21.564 16.7099 21.577 16.7217L25.5206 20.4853C25.7026 20.6589 25.944 20.7554 26.195 20.7554ZM17.7077 10.8547C17.9393 9.50049 19.1184 8.5411 20.4486 8.5411C20.6038 8.5411 20.761 8.55406 20.9189 8.58115C21.6513 8.70627 22.2911 9.1091 22.7206 9.71564C23.1501 10.3222 23.318 11.0599 23.1925 11.7924C22.9613 13.1466 21.7818 14.1064 20.4516 14.106C20.2964 14.106 20.1392 14.093 19.9813 14.0659C18.4691 13.8077 17.4491 12.3669 17.7077 10.8547ZM11.896 16.3032C11.9616 15.9096 12.1722 15.5697 12.4892 15.3461C12.7227 15.1817 12.9939 15.0959 13.2716 15.0959C13.3517 15.0959 13.4322 15.1031 13.5127 15.1176C14.2856 15.2561 14.8051 16.0225 14.6712 16.8255C14.6056 17.2191 14.3947 17.559 14.0777 17.7826C13.7771 17.9947 13.4139 18.0755 13.0546 18.0115C12.2817 17.8726 11.7618 17.1062 11.896 16.3032ZM12.2222 27.6531L10.5777 27.3578C10.2622 27.3014 10.057 26.9596 10.1203 26.596L11.3238 19.6853L14.0731 20.1786L13.6096 22.8908L12.8711 27.2091C12.7742 27.5089 12.4957 27.7019 12.2222 27.6531ZM12.3896 41.9189C11.8914 41.6774 11.5821 41.1827 11.5821 40.6276C11.5821 40.411 11.6305 40.2011 11.7255 40.0051L14.1784 34.9453C14.2337 34.832 14.2661 34.7088 14.2741 34.5829L14.4759 31.488C15.2121 31.9099 16.0899 31.9793 16.9131 32.1205C17.068 32.1468 17.2229 32.1735 17.3777 32.1998L17.158 35.3668L14.3039 41.2548C14.0738 41.7289 13.6145 42.0181 13.1232 42.0562H12.9016C12.7284 42.0425 12.5552 41.999 12.3896 41.9189ZM23.1887 42.0562H16.0857L18.9978 36.0489C19.0181 36.0073 19.0348 35.9649 19.049 35.9214C19.0726 35.8478 19.0879 35.77 19.0936 35.6895L19.3061 32.6244L21.6166 33.7379L24.9686 37.9688C25.3539 38.4552 25.8471 38.8065 26.3873 39.0171L23.1887 42.0562Z" fill="#00BB98"/>
<path d="M37.9245 13.7482H42.921C44.9886 13.7482 46.6709 12.0659 46.6709 9.998C46.6709 7.93043 44.9886 6.24815 42.921 6.24815C42.4217 6.24815 41.9303 6.3481 41.4752 6.53807C40.6398 5.45164 39.3356 4.78979 37.9245 4.78979C35.4545 4.78979 33.4453 6.79899 33.4453 9.26901C33.4453 10.4653 33.9111 11.5903 34.7572 12.4363C35.6033 13.2824 36.7279 13.7482 37.9245 13.7482ZM37.9245 6.74292C38.9308 6.74292 39.8406 7.33954 40.2423 8.26346C40.3652 8.54612 40.6143 8.75441 40.9145 8.82498C41.2143 8.89517 41.5302 8.82002 41.7663 8.62166C42.0936 8.34662 42.4926 8.20128 42.921 8.20128C43.9117 8.20128 44.7177 9.00732 44.7177 9.998C44.7177 10.9891 43.9117 11.7951 42.921 11.7951H37.9245C37.2497 11.7951 36.6153 11.5323 36.1381 11.055C35.6609 10.5782 35.3984 9.94383 35.3984 9.26901C35.3984 7.87588 36.5318 6.74292 37.9245 6.74292Z" fill="#00BB98"/>
<path d="M5.9062 11.2854C7.87268 11.2854 9.47256 9.68554 9.47256 7.71907C9.47256 5.75259 7.87268 4.15271 5.9062 4.15271C4.95367 4.15271 4.05798 4.5235 3.38469 5.19717C2.71101 5.87085 2.33984 6.76654 2.33984 7.71907C2.33984 9.68554 3.94011 11.2854 5.9062 11.2854ZM4.76561 6.57847C5.0704 6.27368 5.47552 6.10583 5.9062 6.10583C6.79579 6.10583 7.51944 6.82948 7.51944 7.71907C7.51944 8.60865 6.79579 9.3323 5.9062 9.3323C5.017 9.3323 4.29297 8.60865 4.29297 7.71907C4.29297 7.28801 4.46081 6.88289 4.76561 6.57847Z" fill="#00BB98"/>
<path d="M0.488244 5.74156L0.946389 6.00592C1.10012 6.0948 1.26835 6.13715 1.43391 6.13715C1.77151 6.13715 2.09957 5.96205 2.28039 5.64848C2.55009 5.18157 2.39025 4.58418 1.92295 4.31449L1.46481 4.05013C0.997888 3.78043 0.400506 3.94026 0.130808 4.40756C-0.13851 4.87448 0.0213258 5.47186 0.488244 5.74156Z" fill="#00BB98"/>
<path d="M11.3216 9.74002L10.8634 9.47566C10.3965 9.20597 9.79911 9.3658 9.52941 9.8331C9.25972 10.3 9.41993 10.8974 9.88685 11.1671L10.345 11.4315C10.4987 11.5203 10.6666 11.5627 10.8325 11.5627C11.1697 11.5627 11.4982 11.3876 11.679 11.074C11.9487 10.6071 11.7885 10.0097 11.3216 9.74002Z" fill="#00BB98"/>
<path d="M0.97767 11.5627C1.14323 11.5627 1.31146 11.5203 1.46519 11.4315L1.92295 11.1671C2.39025 10.8974 2.55009 10.3004 2.28039 9.8331C2.01069 9.3658 1.41369 9.20597 0.946389 9.47566L0.488244 9.74002C0.0213258 10.0097 -0.13851 10.6071 0.130808 11.074C0.312005 11.3876 0.640069 11.5627 0.97767 11.5627Z" fill="#00BB98"/>
<path d="M10.3763 6.13706C10.5418 6.13706 10.7097 6.09472 10.8634 6.00622L11.3216 5.74148C11.7889 5.47178 11.9487 4.87478 11.679 4.40748C11.4093 3.94056 10.8119 3.78035 10.345 4.05004L9.88685 4.3144C9.41993 4.5841 9.25972 5.18148 9.52941 5.64878C9.71061 5.96197 10.0387 6.13706 10.3763 6.13706Z" fill="#00BB98"/>
<path d="M5.90625 3.58314C6.44565 3.58314 6.88281 3.14598 6.88281 2.60658V2.05078C6.88281 1.51138 6.44565 1.07422 5.90625 1.07422C5.36685 1.07422 4.92969 1.51138 4.92969 2.05078V2.60658C4.92969 3.14598 5.36685 3.58314 5.90625 3.58314Z" fill="#00BB98"/>
<path d="M4.92969 12.9222V13.478C4.92969 14.0174 5.36685 14.4546 5.90625 14.4546C6.44565 14.4546 6.88281 14.0174 6.88281 13.478V12.9222C6.88281 12.3828 6.44565 11.9457 5.90625 11.9457C5.36685 11.9457 4.92969 12.3832 4.92969 12.9222Z" fill="#00BB98"/>
<path d="M43.5802 31.0409C43.4227 30.6571 43.0221 30.4107 42.6086 30.4408C42.2027 30.4702 41.8522 30.7556 41.74 31.1462C41.6275 31.5379 41.7785 31.9705 42.1093 32.2082C42.4354 32.442 42.8863 32.4485 43.2197 32.2265C43.6031 31.9721 43.7572 31.4655 43.5802 31.0409Z" fill="#00BB98"/>
</svg>
