<svg width="50" height="50" viewBox="0 0 50 50" fill="none" xmlns="http://www.w3.org/2000/svg">
<path d="M28.6394 38.8635C28.4879 38.8635 28.2607 38.7878 28.1091 38.712C27.9576 38.5605 27.8819 38.409 27.8819 38.1817L27.7304 35.606C27.7304 35.2272 28.0334 34.8484 28.4122 34.7726C28.791 34.7726 29.094 34.6211 29.3213 34.3181C29.5485 34.0908 29.6243 33.7878 29.6243 33.409C29.5485 33.0302 29.3213 32.6514 29.0182 32.4241C28.9425 32.4241 28.9425 32.3484 28.8667 32.3484C28.791 32.3484 28.791 32.3484 28.7152 32.3484C28.6394 32.3484 28.4879 32.3484 28.2607 32.3484C27.8819 32.3484 27.5031 32.0453 27.5031 31.6666L27.3516 29.0908C27.3516 28.6363 27.6546 28.3332 28.0334 28.2575L30.0031 28.106C30.3061 26.8938 31.291 26.0605 32.5031 25.9847C33.791 25.9847 34.8516 26.7423 35.3061 27.8029L37.2758 27.6514C37.7304 27.6514 38.0334 27.9544 38.1091 28.3332L38.5637 35.6817C38.5637 36.1363 38.2607 36.4393 37.8819 36.515C37.4273 36.515 37.1243 36.212 37.0485 35.8332L36.6697 29.2423L34.8516 29.3181C34.4728 29.3181 34.094 29.015 34.0182 28.6363C33.8667 28.0302 33.3364 27.4999 32.5788 27.4999C31.9728 27.5757 31.4425 28.106 31.4425 28.8635C31.4425 29.2423 31.1394 29.6211 30.7607 29.6211L28.9425 29.6969L29.0182 30.8332H29.094C29.3213 30.8332 29.5485 30.9847 29.7758 31.1363C30.5334 31.5908 31.0637 32.3484 31.1394 33.2575C31.2152 34.015 30.9879 34.6969 30.4576 35.2272C30.1546 35.606 29.7 35.909 29.2455 36.0605L29.3213 37.1969L35.5334 36.8181C35.9879 36.8181 36.291 37.1211 36.3667 37.4999C36.3667 37.9544 36.0637 38.2575 35.6849 38.3332L28.6394 38.8635Z" fill="#00BB98"/>
<path d="M40.7575 46.4394C40.5302 46.4394 40.3787 46.3636 40.2272 46.2121L38.1817 44.0909C37.6514 43.4848 37.3484 42.9545 37.1211 42.4242C36.8938 41.8182 36.8181 41.2121 36.8181 40.606V40.1515L34.3938 37.5C33.4847 36.5151 33.2575 35.2273 33.6362 33.8636C33.712 33.5606 33.8635 33.3333 34.0908 33.0303L34.1665 32.9545C34.2423 32.803 34.3938 32.5757 34.6969 32.4242C34.9999 32.197 35.4544 32.2727 35.6817 32.5757L38.3332 35.4545L40.1514 37.3485C40.4544 37.6515 40.4544 38.106 40.1514 38.4091C39.8484 38.7121 39.3938 38.7121 39.0908 38.4091L37.2726 36.5151L35.2272 34.2424C35.2272 34.2424 35.2272 34.3182 35.1514 34.3939C34.9999 34.8485 34.8484 35.7576 35.6059 36.5151L38.2575 39.3939C38.409 39.5454 38.4847 39.697 38.4847 39.9242V40.6818C38.4847 41.1364 38.5605 41.5909 38.6362 41.9697C38.7878 42.3485 39.015 42.7273 39.3938 43.1818L40.909 44.697L44.8484 40.9848L43.0302 34.8485C42.8787 34.3182 42.5756 33.7879 42.1969 33.4091C41.515 32.7273 40.8332 32.3485 40.1514 32.2727L37.4999 31.7424C37.1211 31.6667 36.8181 31.2879 36.8938 30.8333C36.9696 30.4545 37.3484 30.1515 37.8029 30.2273L40.4544 30.7576C41.4393 30.9091 42.4241 31.4394 43.3332 32.3485C43.8635 32.8788 44.3181 33.6364 44.5453 34.3939L46.515 40.9848C46.5908 41.2879 46.515 41.5909 46.2878 41.7424L41.4393 46.2879C41.1362 46.3636 40.909 46.4394 40.7575 46.4394Z" fill="#00BB98"/>
<path d="M42.5772 49.2424C42.3499 49.2424 42.1984 49.1666 42.0469 49.0151L39.7741 46.5909C39.6226 46.4394 39.5469 46.2121 39.5469 46.0606C39.5469 45.8333 39.6226 45.6818 39.7741 45.5303L45.6832 40C45.8348 39.8485 46.062 39.7727 46.2135 39.7727C46.4408 39.7727 46.5923 39.8485 46.7438 40L49.0166 42.4242C49.3196 42.7273 49.3196 43.1818 49.0166 43.4848L43.1075 49.0151C42.956 49.1666 42.8045 49.2424 42.5772 49.2424ZM41.3651 46.1363L42.5772 47.4242L47.3499 42.8788L46.2135 41.5909L41.3651 46.1363Z" fill="#00BB98"/>
<path d="M36.2133 22.4999H36.1375L33.5618 22.1969C33.3345 22.1969 33.183 22.0454 33.0315 21.8939C32.88 21.7423 32.88 21.5151 32.88 21.2878C32.9557 20.6817 32.4254 20.0757 31.7436 19.9242C30.986 19.8484 30.4557 20.3787 30.38 21.0605C30.3042 21.4393 29.9254 21.7423 29.5466 21.7423L26.9709 21.4393C26.7436 21.4393 26.5921 21.2878 26.4406 21.1363C26.2891 20.9848 26.2891 20.7575 26.2891 20.606L26.5921 18.0302C26.6678 17.6514 26.9709 17.3484 27.4254 17.3484C28.183 17.4242 28.7891 16.9696 28.7891 16.2878C28.8648 15.4545 28.3345 14.9999 27.7285 14.9242C27.3497 14.8484 27.0466 14.4696 27.0466 14.0908L27.3497 11.5151C27.4254 11.1363 27.7285 10.8333 28.183 10.8333L35.2285 11.5908C35.6072 11.6666 35.9103 12.0454 35.9103 12.4242C35.8345 12.8029 35.5315 13.106 35.0769 13.106L28.7891 12.4242L28.7133 13.6363C29.8497 14.0908 30.5315 15.2272 30.38 16.5151C30.3042 17.7272 29.3194 18.6363 28.1072 18.8636L27.9557 20.0757L29.1679 20.2272C29.6224 19.0908 30.7588 18.409 32.0466 18.5605C33.2588 18.712 34.2436 19.6969 34.3951 20.8333L35.5315 20.9848L36.2891 14.4696C36.3648 14.0908 36.7436 13.7878 37.1224 13.7878C37.5012 13.8636 37.8042 14.2423 37.8042 14.6211L36.9709 21.8939C36.9709 22.1211 36.8194 22.2726 36.6679 22.4242C36.5163 22.4242 36.3648 22.4999 36.2133 22.4999Z" fill="#00BB98"/>
<path d="M37.0489 19.6211C36.6701 19.6211 36.3671 19.3181 36.2914 18.9393C36.2156 18.5605 36.5186 18.106 36.9732 18.106L39.7004 17.7272C40.458 17.5757 41.1398 17.2727 41.7459 16.6666C42.1247 16.2878 42.4277 15.7575 42.655 15.303L44.7004 9.24236L40.8368 5.37873L39.2459 6.96964C38.8671 7.34842 38.6398 7.72721 38.5641 8.106C38.4126 8.56055 38.2611 9.01509 38.2611 9.39388V10.1515C38.2611 10.3787 38.1853 10.5302 38.0338 10.6818L35.2307 13.4848C34.7004 14.0151 34.4732 14.8484 34.7004 15.606V15.6818L38.7914 11.5908C39.0944 11.2878 39.5489 11.2878 39.852 11.5908C40.155 11.8939 40.155 12.3484 39.852 12.6515L35.155 17.4242C34.852 17.7272 34.3974 17.7272 34.0944 17.4242C33.8671 17.1969 33.6398 16.8939 33.5641 16.6666C33.4883 16.5151 33.4126 16.2878 33.2611 16.0605C32.8823 14.7727 33.1853 13.3333 34.0944 12.4242L36.6701 9.84842V9.39388C36.6701 8.78782 36.8217 8.18176 37.0489 7.65146C37.2762 6.81812 37.8823 6.1363 38.1095 5.90903L40.3065 3.78782C40.6095 3.48479 41.0641 3.48479 41.3671 3.78782L46.0641 8.48479C46.2914 8.71206 46.3671 9.01509 46.2156 9.24236L44.0186 15.7575C43.7156 16.5151 43.3368 17.1969 42.8065 17.7272C41.9732 18.5605 40.9883 19.0908 39.852 19.2424L37.1247 19.6211H37.0489Z" fill="#00BB98"/>
<path d="M46.1402 10.3788C45.9129 10.3788 45.7614 10.303 45.6099 10.1515L39.8523 4.39393C39.7008 4.24242 39.625 4.0909 39.625 3.86363C39.625 3.63636 39.7008 3.48484 39.8523 3.33333L42.2008 0.984841C42.5038 0.681811 42.9583 0.681811 43.2614 0.984841L49.0189 6.74242C49.322 7.04545 49.322 7.49999 49.0189 7.80303L46.6705 10.1515C46.5947 10.303 46.3674 10.3788 46.1402 10.3788ZM41.5189 3.86363L46.2159 8.5606L47.5038 7.27272L42.8068 2.57575L41.5189 3.86363Z" fill="#00BB98"/>
<path d="M21.0634 39.6969C20.9877 39.6969 20.9877 39.6969 20.9119 39.6969L14.6998 38.3333C14.321 38.2575 14.018 37.803 14.0937 37.4242C14.1695 37.0454 14.624 36.7424 15.0028 36.8181L20.4574 38.0303L20.8361 36.2121C20.9119 35.9848 20.9877 35.8333 21.1392 35.7575C21.2907 35.6818 21.518 35.606 21.7452 35.6818C22.4271 35.8333 23.0331 35.3787 23.1846 34.7727C23.3361 34.0909 22.8816 33.4848 22.2755 33.3333C21.8967 33.2575 21.5937 32.8787 21.6695 32.4242L22.0483 30.6818L20.9119 30.4545C20.3816 31.5151 19.1695 32.1212 17.9574 31.8181C16.7452 31.5909 15.9119 30.5303 15.8361 29.3181L14.6998 29.0151L13.1089 36.3636C13.0331 36.7424 12.5786 37.0454 12.1998 36.9697C11.821 36.8939 11.518 36.5151 11.5937 36.0606L13.3361 27.9545C13.4119 27.7272 13.4877 27.5757 13.6392 27.5C13.7907 27.4242 14.018 27.3484 14.2452 27.4242L16.7452 28.0303C17.124 28.106 17.427 28.5606 17.2755 28.9394C17.124 29.6212 17.5786 30.2272 18.1846 30.3787C18.8664 30.5303 19.4725 30.0757 19.624 29.4697C19.6998 29.0909 20.0786 28.7878 20.5331 28.8636L23.0331 29.3939C23.2604 29.4697 23.4119 29.5454 23.4877 29.6969C23.5634 29.8484 23.6392 30.0757 23.5634 30.303L23.1846 32.1969C24.2452 32.7272 24.8513 33.9394 24.5483 35.1515C24.321 36.3636 23.2604 37.1969 22.0483 37.2727L21.6695 39.2424C21.5937 39.4697 21.518 39.6212 21.3664 39.6969C21.3664 39.6212 21.2149 39.6969 21.0634 39.6969Z" fill="#00BB98"/>
<path d="M9.16855 46.4394C8.94128 46.4394 8.78976 46.3636 8.63825 46.2121L3.94128 41.5152C3.71401 41.2879 3.63825 40.9849 3.78976 40.7576L5.98673 34.2424C6.28976 33.4849 6.66855 32.803 7.19886 32.2727C8.03219 31.4394 9.01704 30.9091 10.1534 30.7576L12.8807 30.3788C13.2595 30.303 13.714 30.6061 13.714 31.0606C13.7898 31.4394 13.4867 31.8939 13.0322 31.8939L10.3049 32.2727C9.54734 32.4242 8.86552 32.7273 8.25946 33.3333C7.88067 33.7121 7.57764 34.2424 7.35037 34.697L5.30492 40.7576L9.16855 44.6212L10.7595 43.0303C11.1382 42.6515 11.3655 42.2727 11.4413 41.8939C11.5928 41.4394 11.7443 40.9849 11.7443 40.6061V39.8485C11.7443 39.6212 11.8201 39.4697 11.9716 39.3182L14.7746 36.5152C15.3049 35.9849 15.5322 35.1515 15.3049 34.3939V34.3182L11.214 38.4091C10.911 38.7121 10.4564 38.7121 10.1534 38.4091C9.85037 38.1061 9.85037 37.6515 10.1534 37.3485L14.9261 32.5758C15.2292 32.2727 15.6837 32.2727 15.9867 32.5758C16.214 32.803 16.4413 33.1061 16.517 33.3333C16.5928 33.4849 16.6686 33.7121 16.8201 33.9394C17.1989 35.2273 16.8958 36.6667 15.9867 37.5758L13.2595 40.1515V40.6061C13.2595 41.2121 13.1079 41.8182 12.8807 42.3485C12.6534 43.1818 12.0473 43.8636 11.8201 44.0909L9.69886 46.2121C9.54734 46.3636 9.39583 46.4394 9.16855 46.4394Z" fill="#00BB98"/>
<path d="M7.19875 49.2424C6.97147 49.2424 6.81996 49.1667 6.66844 49.0152L0.910867 43.2576C0.607836 42.9545 0.607836 42.5 0.910867 42.197L3.25935 39.8485C3.56238 39.5455 4.01693 39.5455 4.31996 39.8485L10.0775 45.6061C10.3806 45.9091 10.3806 46.3636 10.0775 46.6667L7.72905 49.0152C7.57754 49.1667 7.42602 49.2424 7.19875 49.2424ZM2.57753 42.7273L7.27451 47.4242L8.56238 46.1364L3.86541 41.4394L2.57753 42.7273Z" fill="#00BB98"/>
<path d="M18.1831 24.0151C17.1225 24.0151 16.0619 23.3333 15.6831 22.4242L13.7134 22.6515C13.3346 22.7272 12.9558 22.4242 12.8801 22.0454L11.6679 14.0909C11.5922 13.7121 11.8952 13.2575 12.274 13.2575C12.6528 13.1818 13.1073 13.4848 13.1073 13.8636L14.2437 21.0606L16.0619 20.8333C16.4407 20.7575 16.8195 21.0606 16.8952 21.5151C16.971 22.1212 17.6528 22.6515 18.3346 22.5757C18.9407 22.5 19.471 21.8182 19.3952 21.1363C19.3195 20.7575 19.6225 20.303 20.0013 20.303L21.8194 20L21.5164 18.1818C21.5164 17.9545 21.5164 17.803 21.6679 17.6515C21.8195 17.5 21.971 17.3485 22.1982 17.3485C22.8043 17.2727 23.3346 16.5909 23.2588 15.9091C23.1831 15.606 23.0316 15.303 22.8043 15.1515C22.5013 14.9242 22.1982 14.8485 21.8952 14.9242C21.5164 15 21.0619 14.6969 21.0619 14.3181L20.7588 12.5L15.077 13.3333C14.6982 13.4091 14.2437 13.106 14.2437 12.7272C14.2437 12.3485 14.471 11.8939 14.8498 11.8939L21.2891 10.9091C21.5164 10.9091 21.6679 10.9091 21.8194 11.0606C21.971 11.2121 22.1225 11.3636 22.1225 11.5909L22.4255 13.5606C22.8801 13.6363 23.3346 13.7878 23.7134 14.0909C24.3194 14.5454 24.6982 15.1515 24.8498 15.9091C25.0013 17.1212 24.3195 18.3333 23.2588 18.7878L23.5619 20.7575C23.6376 21.1363 23.3346 21.5909 22.9558 21.5909L20.9861 21.8939C20.8346 23.106 19.8498 24.0909 18.7134 24.2424C18.4861 24.0151 18.3346 24.0151 18.1831 24.0151Z" fill="#00BB98"/>
<path d="M12.9581 19.6211H12.8823L10.1551 19.2424C9.01871 19.0908 8.03386 18.5605 7.20053 17.7272C6.67023 17.1969 6.21568 16.5151 5.98841 15.7575L3.79144 9.24236C3.71568 8.93933 3.79144 8.6363 3.94295 8.48479L8.63992 3.78782C8.94295 3.48479 9.3975 3.48479 9.70053 3.78782L11.8217 5.90903C12.049 6.1363 12.6551 6.81812 12.9581 7.65146C13.1096 8.106 13.2611 8.71206 13.2611 9.39388V9.84842L15.8369 12.4242C16.746 13.3333 17.1248 14.7727 16.6702 16.0605C16.5945 16.3636 16.5187 16.5151 16.3672 16.7424C16.2914 16.9696 16.0642 17.2727 15.8369 17.4999C15.5339 17.803 15.0793 17.803 14.7763 17.4999L10.0036 12.7272C9.70053 12.4242 9.70053 11.9696 10.0036 11.6666C10.3066 11.3636 10.7611 11.3636 11.0642 11.6666L15.1551 15.7575V15.6818C15.3823 14.9242 15.1551 14.0908 14.6248 13.5605L11.8217 10.7575C11.6702 10.606 11.5945 10.4545 11.5945 10.2272V9.46964C11.5945 9.01509 11.443 8.56055 11.3672 8.18176C11.2914 7.80297 10.9884 7.34843 10.6096 7.0454L9.01871 5.45449L5.30659 9.24236L7.35205 15.303C7.50356 15.8333 7.88235 16.2878 8.26114 16.6666C8.8672 17.2727 9.54902 17.6515 10.3066 17.7272L13.0339 18.106C13.4127 18.1818 13.7157 18.5605 13.7157 18.9393C13.6399 19.3181 13.3369 19.6211 12.9581 19.6211Z" fill="#00BB98"/>
<path d="M3.86387 10.303C3.6366 10.303 3.48509 10.2272 3.33357 10.0757L0.985085 7.72722C0.83357 7.5757 0.757812 7.42419 0.757812 7.19692C0.757812 6.96964 0.83357 6.81813 0.985085 6.66661L6.74266 0.909035C7.04569 0.606005 7.50024 0.606005 7.80327 0.909035L10.1518 3.25752C10.4548 3.56055 10.4548 4.0151 10.1518 4.31813L4.39418 10.0757C4.24266 10.2272 4.09115 10.303 3.86387 10.303ZM2.57599 7.19692L3.86387 8.4848L8.56085 3.78782L7.27297 2.5757L2.57599 7.19692Z" fill="#00BB98"/>
</svg>
