<svg width="50" height="50" viewBox="0 0 50 50" fill="none" xmlns="http://www.w3.org/2000/svg">
<path d="M9.375 13.2813C8.60242 13.2813 7.84718 13.0522 7.20481 12.6229C6.56243 12.1937 6.06175 11.5836 5.7661 10.8699C5.47044 10.1561 5.39309 9.37067 5.54381 8.61293C5.69453 7.85519 6.06657 7.15916 6.61287 6.61287C7.15916 6.06657 7.85519 5.69453 8.61293 5.54381C9.37067 5.39309 10.1561 5.47044 10.8699 5.7661C11.5836 6.06175 12.1937 6.56243 12.6229 7.20481C13.0522 7.84718 13.2813 8.60242 13.2813 9.375C13.28 10.4106 12.8681 11.4035 12.1358 12.1358C11.4035 12.8681 10.4106 13.28 9.375 13.2813ZM9.375 7.03125C8.91145 7.03125 8.45831 7.16871 8.07288 7.42624C7.68746 7.68378 7.38705 8.04982 7.20966 8.47809C7.03227 8.90635 6.98585 9.3776 7.07629 9.83224C7.16672 10.2869 7.38994 10.7045 7.71772 11.0323C8.0455 11.3601 8.46312 11.5833 8.91776 11.6737C9.3724 11.7642 9.84365 11.7177 10.2719 11.5403C10.7002 11.363 11.0662 11.0625 11.3238 10.6771C11.5813 10.2917 11.7188 9.83855 11.7188 9.375C11.7188 8.7534 11.4718 8.15726 11.0323 7.71772C10.5927 7.27818 9.9966 7.03125 9.375 7.03125Z" fill="#FD4C5C"/>
<path d="M45.314 36.7188H43.7515C43.7496 36.0977 43.5021 35.5027 43.063 35.0635C42.6238 34.6244 42.0288 34.3769 41.4077 34.375H32.814V19.6719C33.2692 19.834 33.6635 20.1325 33.9431 20.5267C34.2227 20.9209 34.374 21.3917 34.3765 21.875C34.3765 22.0822 34.4588 22.2809 34.6053 22.4274C34.7518 22.5739 34.9505 22.6562 35.1577 22.6562C35.3649 22.6562 35.5636 22.5739 35.7102 22.4274C35.8567 22.2809 35.939 22.0822 35.939 21.875C35.939 21.2534 36.1859 20.6573 36.6254 20.2177C37.065 19.7782 37.6611 19.5312 38.2827 19.5312C38.9043 19.5312 39.5005 19.7782 39.94 20.2177C40.3795 20.6573 40.6265 21.2534 40.6265 21.875C40.6265 22.0822 40.7088 22.2809 40.8553 22.4274C41.0018 22.5739 41.2005 22.6562 41.4077 22.6562C41.6149 22.6562 41.8136 22.5739 41.9602 22.4274C42.1067 22.2809 42.189 22.0822 42.189 21.875C42.189 21.2534 42.4359 20.6573 42.8754 20.2177C43.315 19.7782 43.9111 19.5312 44.5327 19.5312C45.1543 19.5312 45.7505 19.7782 46.19 20.2177C46.6295 20.6573 46.8765 21.2534 46.8765 21.875C46.8765 22.0822 46.9588 22.2809 47.1053 22.4274C47.2518 22.5739 47.4505 22.6562 47.6577 22.6562C47.8649 22.6562 48.0636 22.5739 48.2102 22.4274C48.3567 22.2809 48.439 22.0822 48.439 21.875C48.4336 17.6613 46.8072 13.6112 43.8968 10.5641C40.9864 7.51695 37.0152 5.70646 32.8062 5.50781C32.8062 5.49219 32.814 5.48438 32.814 5.46875V3.90625C32.814 3.69905 32.7317 3.50034 32.5852 3.35382C32.4386 3.20731 32.2399 3.125 32.0327 3.125C31.8255 3.125 31.6268 3.20731 31.4803 3.35382C31.3338 3.50034 31.2515 3.69905 31.2515 3.90625V5.46875C31.2515 5.48438 31.2593 5.49219 31.2593 5.50781C27.0503 5.70646 23.079 7.51695 20.1686 10.5641C17.2582 13.6112 15.6318 17.6613 15.6265 21.875C15.6265 22.0822 15.7088 22.2809 15.8553 22.4274C16.0018 22.5739 16.2005 22.6562 16.4077 22.6562C16.6149 22.6562 16.8136 22.5739 16.9601 22.4274C17.1067 22.2809 17.189 22.0822 17.189 21.875C17.189 21.2534 17.4359 20.6573 17.8754 20.2177C18.315 19.7782 18.9111 19.5312 19.5327 19.5312C20.1543 19.5312 20.7505 19.7782 21.19 20.2177C21.6295 20.6573 21.8765 21.2534 21.8765 21.875C21.8765 22.0822 21.9588 22.2809 22.1053 22.4274C22.2518 22.5739 22.4505 22.6562 22.6577 22.6562C22.8649 22.6562 23.0636 22.5739 23.2101 22.4274C23.3567 22.2809 23.439 22.0822 23.439 21.875C23.439 21.2534 23.6859 20.6573 24.1254 20.2177C24.565 19.7782 25.1611 19.5312 25.7827 19.5312C26.4043 19.5312 27.0005 19.7782 27.44 20.2177C27.8795 20.6573 28.1265 21.2534 28.1265 21.875C28.1265 22.0822 28.2088 22.2809 28.3553 22.4274C28.5018 22.5739 28.7005 22.6562 28.9077 22.6562C29.1149 22.6562 29.3136 22.5739 29.4601 22.4274C29.6067 22.2809 29.689 22.0822 29.689 21.875C29.6915 21.3917 29.8428 20.9209 30.1224 20.5267C30.402 20.1325 30.7962 19.834 31.2515 19.6719V34.375H18.2905L10.1577 26.2344C9.74507 25.8195 9.1916 25.5748 8.60701 25.5487C8.02242 25.5227 7.44938 25.7172 7.00147 26.0938L6.47803 26.5234C5.8739 26.0688 5.11981 25.8602 4.36789 25.9397C3.61597 26.0192 2.92221 26.381 2.42655 26.952C1.9309 27.5229 1.67026 28.2607 1.69721 29.0163C1.72417 29.7719 2.03671 30.4892 2.57178 31.0234L13.8687 42.3203L11.0405 47.2656C10.9752 47.3854 10.9409 47.5198 10.9409 47.6562C10.9409 47.7927 10.9752 47.9271 11.0405 48.0469C11.1094 48.1661 11.2085 48.265 11.3278 48.3336C11.4472 48.4022 11.5826 48.438 11.7202 48.4375H15.6265C15.7641 48.438 15.8995 48.4022 16.0189 48.3336C16.1382 48.265 16.2373 48.1661 16.3062 48.0469L19.2046 42.9688H31.2515V47.6562C31.2515 47.8634 31.3338 48.0622 31.4803 48.2087C31.6268 48.3552 31.8255 48.4375 32.0327 48.4375C32.2399 48.4375 32.4386 48.3552 32.5852 48.2087C32.7317 48.0622 32.814 47.8634 32.814 47.6562V42.9688H37.8296L40.728 48.0469C40.7969 48.1661 40.896 48.265 41.0153 48.3336C41.1347 48.4022 41.2701 48.438 41.4077 48.4375H45.314C45.4516 48.438 45.587 48.4022 45.7064 48.3336C45.8257 48.265 45.9248 48.1661 45.9937 48.0469C46.059 47.9271 46.0933 47.7927 46.0933 47.6562C46.0933 47.5198 46.059 47.3854 45.9937 47.2656L43.5327 42.9688H45.314C46.1428 42.9688 46.9376 42.6395 47.5237 42.0535C48.1097 41.4674 48.439 40.6726 48.439 39.8438C48.439 39.0149 48.1097 38.2201 47.5237 37.634C46.9376 37.048 46.1428 36.7188 45.314 36.7188ZM46.4858 18.4922C45.8187 18.1062 45.0521 17.9269 44.283 17.977C43.5139 18.0271 42.777 18.3042 42.1655 18.7734C42.0502 16.844 41.5176 14.9626 40.6045 13.2591C39.6913 11.5555 38.4194 10.0704 36.8765 8.90625L34.7046 7.27344C37.5449 7.79924 40.1709 9.13979 42.2627 11.1317C44.3545 13.1237 45.8218 15.681 46.4858 18.4922ZM35.939 10.1562C37.2805 11.1697 38.3889 12.4592 39.1895 13.9377C39.9901 15.4162 40.4641 17.0492 40.5796 18.7266C39.9068 18.2291 39.0908 17.9633 38.2541 17.9689C37.4174 17.9746 36.605 18.2514 35.939 18.7578V18.5781C35.9401 15.495 35.3514 12.4401 34.2046 9.57812L33.7905 8.54687L35.939 10.1562ZM21.8999 18.7734C21.2885 18.3042 20.5515 18.0271 19.7824 17.977C19.0134 17.9269 18.2467 18.1062 17.5796 18.4922C18.2436 15.681 19.7109 13.1237 21.8027 11.1317C23.8946 9.13979 26.5206 7.79924 29.3608 7.27344L27.189 8.90625C25.6461 10.0704 24.3741 11.5555 23.461 13.2591C22.5478 14.9626 22.0152 16.844 21.8999 18.7734ZM28.1265 18.5781V18.7578C27.4604 18.2514 26.6481 17.9746 25.8114 17.9689C24.9747 17.9633 24.1587 18.2291 23.4858 18.7266C23.6014 17.0492 24.0754 15.4162 24.876 13.9377C25.6765 12.4592 26.785 11.1697 28.1265 10.1562L30.2749 8.54687L29.8608 9.57812C28.714 12.4401 28.1253 15.495 28.1265 18.5781ZM29.689 18.7578V18.5781C29.6875 15.6961 30.2364 12.8402 31.3062 10.1641L32.0327 8.35156L32.7593 10.1641C33.8291 12.8402 34.378 15.6961 34.3765 18.5781V18.7578C33.7024 18.2458 32.8792 17.9687 32.0327 17.9687C31.1863 17.9687 30.3631 18.2458 29.689 18.7578ZM8.00147 27.2969C8.14899 27.1696 8.33959 27.1036 8.53422 27.1123C8.72886 27.121 8.9128 27.2038 9.04835 27.3438L17.4155 35.7109C17.5645 35.8548 17.7631 35.936 17.9702 35.9375H41.4077C41.6149 35.9375 41.8136 36.0198 41.9602 36.1663C42.1067 36.3128 42.189 36.5116 42.189 36.7188H16.728L7.61866 27.6094L8.00147 27.2969ZM15.1733 46.875H13.064L15.2983 42.9688H17.4077L15.1733 46.875ZM43.9702 46.875H41.8609L39.6265 42.9688H41.7358L43.9702 46.875ZM45.314 41.4062H15.1655L3.68116 29.9141C3.41387 29.6468 3.26371 29.2843 3.26371 28.9062C3.26371 28.5282 3.41387 28.1657 3.68116 27.8984C3.94845 27.6311 4.31097 27.481 4.68897 27.481C5.06697 27.481 5.42949 27.6311 5.69678 27.8984L15.853 38.0547C16.002 38.1986 16.2006 38.2797 16.4077 38.2812H45.314C45.7284 38.2812 46.1258 38.4459 46.4188 38.7389C46.7119 39.0319 46.8765 39.4293 46.8765 39.8438C46.8765 40.2582 46.7119 40.6556 46.4188 40.9486C46.1258 41.2416 45.7284 41.4062 45.314 41.4062Z" fill="#FD4C5C"/>
<path d="M9.375 4.6875C9.1678 4.6875 8.96909 4.60519 8.82257 4.45868C8.67606 4.31216 8.59375 4.11345 8.59375 3.90625V2.34375C8.59375 2.13655 8.67606 1.93784 8.82257 1.79132C8.96909 1.64481 9.1678 1.5625 9.375 1.5625C9.5822 1.5625 9.78091 1.64481 9.92743 1.79132C10.0739 1.93784 10.1562 2.13655 10.1562 2.34375V3.90625C10.1562 4.11345 10.0739 4.31216 9.92743 4.45868C9.78091 4.60519 9.5822 4.6875 9.375 4.6875Z" fill="#FD4C5C"/>
<path d="M6.64009 5.42036C6.50282 5.42049 6.36794 5.38446 6.24903 5.31588C6.13012 5.2473 6.03138 5.14861 5.96275 5.02973L5.1815 3.67661C5.12939 3.58772 5.09538 3.48941 5.08142 3.38733C5.06746 3.28525 5.07384 3.18141 5.10017 3.08181C5.12651 2.9822 5.17228 2.88878 5.23487 2.80694C5.29745 2.72509 5.37561 2.65643 5.46484 2.60492C5.55406 2.5534 5.6526 2.52004 5.75477 2.50676C5.85694 2.49348 5.96073 2.50054 6.06016 2.52754C6.1596 2.55453 6.25271 2.60093 6.33413 2.66405C6.41556 2.72718 6.4837 2.80579 6.53462 2.89536L7.31587 4.24848C7.38441 4.36719 7.42051 4.50184 7.42054 4.63891C7.42058 4.77598 7.38455 4.91064 7.31607 5.02939C7.2476 5.14813 7.14909 5.24676 7.03044 5.31539C6.91178 5.38402 6.77716 5.42022 6.64009 5.42036Z" fill="#FD4C5C"/>
<path d="M4.63808 7.4219C4.50094 7.4219 4.36622 7.38579 4.24746 7.31722L2.89511 6.53597C2.80555 6.48504 2.72694 6.4169 2.66381 6.33548C2.60068 6.25405 2.55429 6.16094 2.52729 6.06151C2.5003 5.96207 2.49324 5.85828 2.50652 5.75611C2.5198 5.65394 2.55316 5.5554 2.60467 5.46618C2.65619 5.37695 2.72485 5.2988 2.80669 5.23621C2.88854 5.17363 2.98195 5.12785 3.08156 5.10151C3.18117 5.07518 3.285 5.06881 3.38709 5.08276C3.48917 5.09672 3.58748 5.13073 3.67636 5.18284L5.02871 5.96409C5.17764 6.05008 5.29403 6.18282 5.35984 6.3417C5.42564 6.50059 5.43719 6.67674 5.39268 6.84286C5.34817 7.00897 5.25009 7.15576 5.11365 7.26045C4.97722 7.36514 4.81006 7.4219 4.63808 7.4219Z" fill="#FD4C5C"/>
<path d="M3.90625 10.1562H2.34375C2.13655 10.1562 1.93784 10.0739 1.79132 9.92743C1.64481 9.78091 1.5625 9.5822 1.5625 9.375C1.5625 9.1678 1.64481 8.96909 1.79132 8.82257C1.93784 8.67606 2.13655 8.59375 2.34375 8.59375H3.90625C4.11345 8.59375 4.31216 8.67606 4.45868 8.82257C4.60519 8.96909 4.6875 9.1678 4.6875 9.375C4.6875 9.5822 4.60519 9.78091 4.45868 9.92743C4.31216 10.0739 4.11345 10.1562 3.90625 10.1562Z" fill="#FD4C5C"/>
<path d="M3.28512 13.6719C3.11315 13.6719 2.94598 13.6151 2.80955 13.5105C2.67312 13.4058 2.57504 13.259 2.53053 13.0929C2.48602 12.9267 2.49756 12.7506 2.56337 12.5917C2.62917 12.4328 2.74557 12.3001 2.8945 12.2141L4.24684 11.4328C4.33572 11.3807 4.43404 11.3467 4.53612 11.3328C4.6382 11.3188 4.74203 11.3252 4.84164 11.3515C4.94125 11.3778 5.03467 11.4236 5.11651 11.4862C5.19836 11.5488 5.26701 11.627 5.31853 11.7162C5.37005 11.8054 5.40341 11.9039 5.41669 12.0061C5.42997 12.1083 5.42291 12.2121 5.39591 12.3115C5.36892 12.4109 5.32252 12.504 5.25939 12.5855C5.19627 12.6669 5.11766 12.735 5.02809 12.786L3.67575 13.5672C3.5571 13.6361 3.4223 13.6722 3.28512 13.6719Z" fill="#FD4C5C"/>
<path d="M5.85857 16.2454C5.7215 16.2452 5.58688 16.209 5.46823 16.1404C5.34958 16.0718 5.25107 15.9731 5.18259 15.8544C5.11412 15.7357 5.07809 15.601 5.07813 15.4639C5.07816 15.3268 5.11426 15.1922 5.18279 15.0735L5.96404 13.7204C6.06838 13.5424 6.23888 13.4129 6.43833 13.3602C6.63778 13.3075 6.84999 13.3357 7.02865 13.4389C7.20731 13.5421 7.33792 13.7117 7.39197 13.9108C7.44602 14.1099 7.41913 14.3223 7.31717 14.5016L6.53592 15.8547C6.46728 15.9736 6.36854 16.0723 6.24963 16.1409C6.13072 16.2095 5.99584 16.2455 5.85857 16.2454Z" fill="#FD4C5C"/>
<path d="M9.375 17.1875C9.1678 17.1875 8.96909 17.1052 8.82257 16.9587C8.67606 16.8122 8.59375 16.6135 8.59375 16.4062V14.8438C8.59375 14.6365 8.67606 14.4378 8.82257 14.2913C8.96909 14.1448 9.1678 14.0625 9.375 14.0625C9.5822 14.0625 9.78091 14.1448 9.92743 14.2913C10.0739 14.4378 10.1562 14.6365 10.1562 14.8438V16.4062C10.1562 16.6135 10.0739 16.8122 9.92743 16.9587C9.78091 17.1052 9.5822 17.1875 9.375 17.1875Z" fill="#FD4C5C"/>
<path d="M12.8888 16.2454C12.7515 16.2455 12.6167 16.2095 12.4978 16.1409C12.3788 16.0723 12.2801 15.9736 12.2115 15.8547L11.4302 14.5016C11.3283 14.3223 11.3014 14.1099 11.3554 13.9108C11.4095 13.7117 11.5401 13.5421 11.7187 13.4389C11.8974 13.3357 12.1096 13.3075 12.3091 13.3602C12.5085 13.4129 12.679 13.5424 12.7833 13.7204L13.5646 15.0735C13.6331 15.1922 13.6692 15.3268 13.6693 15.4639C13.6693 15.601 13.6333 15.7357 13.5648 15.8544C13.4963 15.9731 13.3978 16.0718 13.2792 16.1404C13.1605 16.209 13.0259 16.2452 12.8888 16.2454Z" fill="#FD4C5C"/>
<path d="M15.4619 13.6718C15.3247 13.6721 15.1899 13.636 15.0713 13.5672L13.7182 12.7859C13.5402 12.6816 13.4107 12.5111 13.358 12.3116C13.3053 12.1122 13.3336 11.9 13.4367 11.7213C13.5399 11.5426 13.7095 11.412 13.9086 11.358C14.1077 11.3039 14.3201 11.3308 14.4994 11.4328L15.8525 12.214C16.0015 12.3 16.1179 12.4328 16.1837 12.5916C16.2495 12.7505 16.261 12.9267 16.2165 13.0928C16.172 13.2589 16.0739 13.4057 15.9375 13.5104C15.8011 13.6151 15.6339 13.6718 15.4619 13.6718Z" fill="#FD4C5C"/>
<path d="M16.4062 10.1562H14.8438C14.6365 10.1562 14.4378 10.0739 14.2913 9.92743C14.1448 9.78091 14.0625 9.5822 14.0625 9.375C14.0625 9.1678 14.1448 8.96909 14.2913 8.82257C14.4378 8.67606 14.6365 8.59375 14.8438 8.59375H16.4062C16.6135 8.59375 16.8122 8.67606 16.9587 8.82257C17.1052 8.96909 17.1875 9.1678 17.1875 9.375C17.1875 9.5822 17.1052 9.78091 16.9587 9.92743C16.8122 10.0739 16.6135 10.1562 16.4062 10.1562Z" fill="#FD4C5C"/>
<path d="M14.1132 7.4219C13.9413 7.4219 13.7741 7.36514 13.6377 7.26045C13.5012 7.15576 13.4032 7.00897 13.3587 6.84286C13.3141 6.67674 13.3257 6.50059 13.3915 6.3417C13.4573 6.18282 13.5737 6.05008 13.7226 5.96409L15.0757 5.18284C15.1646 5.13073 15.2629 5.09672 15.365 5.08276C15.4671 5.06881 15.5709 5.07518 15.6705 5.10151C15.7702 5.12785 15.8636 5.17363 15.9454 5.23621C16.0273 5.2988 16.0959 5.37695 16.1474 5.46618C16.199 5.5554 16.2323 5.65394 16.2456 5.75611C16.2589 5.85828 16.2518 5.96207 16.2248 6.06151C16.1978 6.16094 16.1514 6.25405 16.0883 6.33548C16.0252 6.4169 15.9466 6.48504 15.857 6.53597L14.5039 7.31722C14.3852 7.38607 14.2504 7.42219 14.1132 7.4219Z" fill="#FD4C5C"/>
<path d="M12.1086 5.42036C11.9715 5.42022 11.8369 5.38402 11.7182 5.31539C11.5996 5.24676 11.5011 5.14813 11.4326 5.02939C11.3641 4.91064 11.3281 4.77598 11.3281 4.63891C11.3282 4.50184 11.3643 4.36719 11.4328 4.24848L12.214 2.89536C12.265 2.80579 12.3331 2.72718 12.4145 2.66405C12.496 2.60093 12.5891 2.55453 12.6885 2.52754C12.7879 2.50054 12.8917 2.49348 12.9939 2.50676C13.0961 2.52004 13.1946 2.5534 13.2838 2.60492C13.3731 2.65643 13.4512 2.72509 13.5138 2.80694C13.5764 2.88878 13.6222 2.9822 13.6485 3.08181C13.6748 3.18141 13.6812 3.28525 13.6672 3.38733C13.6533 3.48941 13.6193 3.58772 13.5672 3.67661L12.7859 5.02973C12.7173 5.14861 12.6185 5.2473 12.4996 5.31588C12.3807 5.38446 12.2458 5.42049 12.1086 5.42036Z" fill="#FD4C5C"/>
</svg>
