<svg width="32" height="32" viewBox="0 0 32 32" fill="none" xmlns="http://www.w3.org/2000/svg">
<path d="M10.667 7.66675C10.1203 7.66675 9.66699 7.21341 9.66699 6.66675V2.66675C9.66699 2.12008 10.1203 1.66675 10.667 1.66675C11.2137 1.66675 11.667 2.12008 11.667 2.66675V6.66675C11.667 7.21341 11.2137 7.66675 10.667 7.66675Z" fill="#FD4C5C"/>
<path d="M21.333 7.66675C20.7863 7.66675 20.333 7.21341 20.333 6.66675V2.66675C20.333 2.12008 20.7863 1.66675 21.333 1.66675C21.8797 1.66675 22.333 2.12008 22.333 2.66675V6.66675C22.333 7.21341 21.8797 7.66675 21.333 7.66675Z" fill="#FD4C5C"/>
<path d="M11.3333 19.3333C11.16 19.3333 10.9867 19.2934 10.8267 19.2267C10.6533 19.16 10.52 19.0667 10.3867 18.9467C10.1467 18.6933 10 18.36 10 18C10 17.8267 10.04 17.6533 10.1067 17.4933C10.1733 17.3333 10.2667 17.1867 10.3867 17.0534C10.52 16.9334 10.6533 16.84 10.8267 16.7733C11.3067 16.5733 11.9067 16.68 12.28 17.0534C12.52 17.3067 12.6667 17.6533 12.6667 18C12.6667 18.08 12.6533 18.1734 12.64 18.2667C12.6267 18.3467 12.6 18.4267 12.56 18.5067C12.5333 18.5867 12.4933 18.6667 12.44 18.7467C12.4 18.8133 12.3333 18.88 12.28 18.9467C12.0267 19.1867 11.68 19.3333 11.3333 19.3333Z" fill="#FD4C5C"/>
<path d="M16.0003 19.3334C15.827 19.3334 15.6537 19.2934 15.4937 19.2268C15.3203 19.1601 15.187 19.0667 15.0537 18.9467C14.8137 18.6934 14.667 18.3601 14.667 18.0001C14.667 17.8267 14.707 17.6534 14.7737 17.4934C14.8403 17.3334 14.9337 17.1868 15.0537 17.0534C15.187 16.9334 15.3203 16.8401 15.4937 16.7734C15.9737 16.5601 16.5737 16.6801 16.947 17.0534C17.187 17.3068 17.3337 17.6534 17.3337 18.0001C17.3337 18.0801 17.3203 18.1734 17.307 18.2668C17.2937 18.3468 17.267 18.4267 17.227 18.5067C17.2003 18.5867 17.1603 18.6667 17.107 18.7467C17.067 18.8134 17.0003 18.8801 16.947 18.9467C16.6937 19.1867 16.347 19.3334 16.0003 19.3334Z" fill="#FD4C5C"/>
<path d="M20.6663 19.3334C20.493 19.3334 20.3197 19.2934 20.1597 19.2268C19.9863 19.1601 19.853 19.0667 19.7197 18.9467C19.6663 18.8801 19.613 18.8134 19.5597 18.7467C19.5063 18.6667 19.4663 18.5867 19.4397 18.5067C19.3997 18.4267 19.373 18.3468 19.3597 18.2668C19.3463 18.1734 19.333 18.0801 19.333 18.0001C19.333 17.6534 19.4797 17.3068 19.7197 17.0534C19.853 16.9334 19.9863 16.8401 20.1597 16.7734C20.653 16.5601 21.2397 16.6801 21.613 17.0534C21.853 17.3068 21.9997 17.6534 21.9997 18.0001C21.9997 18.0801 21.9863 18.1734 21.973 18.2668C21.9597 18.3468 21.933 18.4267 21.893 18.5067C21.8663 18.5867 21.8263 18.6667 21.773 18.7467C21.733 18.8134 21.6663 18.8801 21.613 18.9467C21.3597 19.1867 21.013 19.3334 20.6663 19.3334Z" fill="#FD4C5C"/>
<path d="M11.3333 24.0001C11.16 24.0001 10.9867 23.9601 10.8267 23.8934C10.6667 23.8268 10.52 23.7334 10.3867 23.6134C10.1467 23.3601 10 23.0134 10 22.6668C10 22.4934 10.04 22.3201 10.1067 22.1601C10.1733 21.9867 10.2667 21.8401 10.3867 21.7201C10.88 21.2268 11.7867 21.2268 12.28 21.7201C12.52 21.9734 12.6667 22.3201 12.6667 22.6668C12.6667 23.0134 12.52 23.3601 12.28 23.6134C12.0267 23.8534 11.68 24.0001 11.3333 24.0001Z" fill="#FD4C5C"/>
<path d="M16.0003 24.0001C15.6537 24.0001 15.307 23.8534 15.0537 23.6134C14.8137 23.3601 14.667 23.0134 14.667 22.6668C14.667 22.4934 14.707 22.3201 14.7737 22.1601C14.8403 21.9867 14.9337 21.8401 15.0537 21.7201C15.547 21.2268 16.4537 21.2268 16.947 21.7201C17.067 21.8401 17.1603 21.9867 17.227 22.1601C17.2937 22.3201 17.3337 22.4934 17.3337 22.6668C17.3337 23.0134 17.187 23.3601 16.947 23.6134C16.6937 23.8534 16.347 24.0001 16.0003 24.0001Z" fill="#FD4C5C"/>
<path d="M20.6663 24.0001C20.3197 24.0001 19.973 23.8534 19.7197 23.6134C19.5997 23.4934 19.5063 23.3468 19.4397 23.1735C19.373 23.0135 19.333 22.8401 19.333 22.6668C19.333 22.4935 19.373 22.3201 19.4397 22.1601C19.5063 21.9868 19.5997 21.8401 19.7197 21.7201C20.0263 21.4135 20.493 21.2668 20.9197 21.3601C21.013 21.3734 21.093 21.4001 21.173 21.4401C21.253 21.4668 21.333 21.5068 21.413 21.5601C21.4797 21.6001 21.5463 21.6668 21.613 21.7201C21.853 21.9735 21.9997 22.3201 21.9997 22.6668C21.9997 23.0135 21.853 23.3601 21.613 23.6134C21.3597 23.8534 21.013 24.0001 20.6663 24.0001Z" fill="#FD4C5C"/>
<path d="M27.3337 13.1199H4.66699C4.12033 13.1199 3.66699 12.6665 3.66699 12.1199C3.66699 11.5732 4.12033 11.1199 4.66699 11.1199H27.3337C27.8803 11.1199 28.3337 11.5732 28.3337 12.1199C28.3337 12.6665 27.8803 13.1199 27.3337 13.1199Z" fill="#FD4C5C"/>
<path d="M21.3333 30.3334H10.6667C5.8 30.3334 3 27.5334 3 22.6667V11.3334C3 6.46675 5.8 3.66675 10.6667 3.66675H21.3333C26.2 3.66675 29 6.46675 29 11.3334V22.6667C29 27.5334 26.2 30.3334 21.3333 30.3334ZM10.6667 5.66675C6.85333 5.66675 5 7.52008 5 11.3334V22.6667C5 26.4801 6.85333 28.3334 10.6667 28.3334H21.3333C25.1467 28.3334 27 26.4801 27 22.6667V11.3334C27 7.52008 25.1467 5.66675 21.3333 5.66675H10.6667Z" fill="#FD4C5C"/>
</svg>
