<svg width="55" height="55" viewBox="0 0 55 55" fill="none" xmlns="http://www.w3.org/2000/svg">
<g clip-path="url(#clip0_1310_11099)">
<path d="M23.9141 31.0134L25.4924 30.3309L26.1746 31.9084L24.5963 32.591L23.9141 31.0134Z" fill="#00BB98"/>
<path d="M25.3047 34.1611L26.8833 33.4767L27.502 34.9039L25.9234 35.5883L25.3047 34.1611Z" fill="#00BB98"/>
<path d="M22.5508 27.8584L24.1291 27.1758L24.8113 28.7534L23.233 29.4359L22.5508 27.8584Z" fill="#00BB98"/>
<path d="M35.2344 14.6094V16.3281H39.3267L42.185 22.7038L43.7525 22.0009L40.4396 14.6094H35.2344Z" fill="#00BB98"/>
<path d="M6.875 12.8906C10.1913 12.8906 12.8906 10.1913 12.8906 6.875C12.8906 3.55867 10.1913 0.859375 6.875 0.859375H6.01562V2.36844L6.23133 2.61164C6.64641 3.08172 6.875 3.67984 6.875 4.29688C6.875 5.71828 5.71828 6.875 4.29688 6.875C3.67984 6.875 3.08172 6.64641 2.61164 6.23133L2.36844 6.01562H0.859375V6.875C0.859375 10.1913 3.55867 12.8906 6.875 12.8906ZM4.29688 8.59375C6.66617 8.59375 8.59375 6.66617 8.59375 4.29688C8.59375 3.79328 8.50437 3.29828 8.33164 2.8325C9.98594 3.43062 11.1719 5.01703 11.1719 6.875C11.1719 9.2443 9.2443 11.1719 6.875 11.1719C5.01703 11.1719 3.43062 9.98594 2.8325 8.33164C3.29828 8.50437 3.79328 8.59375 4.29688 8.59375Z" fill="#00BB98"/>
<path d="M51.5634 18.1388L51.5651 18.0469C51.5651 17.362 51.4001 16.7045 51.1045 16.1176C52.8559 15.5753 54.1406 13.9588 54.1406 12.0312C54.1406 10.9648 53.7402 9.94984 53.0252 9.16437C53.1953 8.70031 53.2812 8.22078 53.2812 7.73438C53.2812 5.36508 51.3537 3.4375 48.9844 3.4375C48.4954 3.4375 48.0184 3.52945 47.5638 3.68844C46.7113 2.01266 44.9745 0.859375 42.9688 0.859375C41.8232 0.859375 40.7137 1.25125 39.8131 1.9568C39.0328 1.25812 38.0153 0.859375 36.9531 0.859375C35.1373 0.859375 33.5809 1.99375 32.957 3.61711C32.5858 3.51141 32.2016 3.4375 31.7969 3.4375C29.4276 3.4375 27.5 5.36508 27.5 7.73438C27.5 8.22594 27.5902 8.71234 27.7535 9.17211C27.2516 9.72984 26.883 10.4096 26.7274 11.1719H12.3346L0.859375 36.7692V38.6719H30.6823C30.3248 39.4402 30.0781 40.2961 30.0781 41.2921C30.0781 42.6198 30.5138 43.8316 31.2701 44.8585L23.4549 52.6737L24.6701 53.8888L32.4534 46.1055C32.884 46.4587 33.3652 46.7723 33.8895 47.0413L30.213 52.8198L31.6637 53.7427L35.5188 47.6841C36.227 47.8921 36.9806 48.0356 37.7764 48.0932L37.8125 54.1458L39.5312 54.1355L39.4943 48.0992C40.4551 48.0477 41.3377 47.9093 42.1369 47.6893L46.5704 53.7866L47.96 52.7759L43.8006 47.0559C44.2561 46.8248 44.6695 46.5566 45.0398 46.255L52.6737 53.8888L53.8888 52.6737L46.2017 44.9866C46.8927 43.9691 47.2656 42.7307 47.2656 41.2921C47.2656 40.4001 47.0654 39.5261 46.7586 38.6719H54.1406V36.7692L47.6515 22.293C49.8223 22.043 51.5376 20.2744 51.5634 18.1388ZM30.9375 9.45312V7.73438C30.3428 7.73438 29.7765 7.85641 29.2609 8.07555C29.2454 7.96211 29.2188 7.85125 29.2188 7.73438C29.2188 6.31297 30.3755 5.15625 31.7969 5.15625C33.2183 5.15625 34.375 6.31297 34.375 7.73438H36.0938C36.0938 6.38773 35.4587 5.19922 34.4859 4.41031C34.8064 3.33953 35.7964 2.57812 36.9531 2.57812C37.7867 2.57812 38.5739 2.98977 39.0586 3.67727L39.6851 4.565L40.4044 3.75117C41.0738 2.99492 41.9839 2.57812 42.9688 2.57812C44.8645 2.57812 46.4062 4.11984 46.4062 6.01562C46.4062 7.91141 44.8645 9.45312 42.9688 9.45312V11.1719C45.8124 11.1719 48.125 8.8593 48.125 6.01562C48.125 5.78188 48.1044 5.55414 48.0734 5.32898C48.363 5.21898 48.669 5.15625 48.9844 5.15625C50.4058 5.15625 51.5625 6.31297 51.5625 7.73438C51.5625 8.14859 51.4525 8.56023 51.2368 8.95641L50.8939 9.58547L51.4516 10.0358C52.0687 10.5342 52.4219 11.2612 52.4219 12.0312C52.4219 13.4527 51.2652 14.6094 49.8438 14.6094V14.612C49.506 14.3576 49.1287 14.1488 48.7171 14.0009L48.1379 15.6191C49.1588 15.9852 49.8455 16.9615 49.8446 18.0855C49.8274 19.4863 48.6123 20.625 47.1359 20.625H46.9038L42.6662 11.1719H28.5175C28.8733 10.1741 29.8186 9.45312 30.9375 9.45312ZM20.1532 34.8717C16.0239 29.9166 13.75 23.6362 13.75 17.1875V16.1769L22.7528 36.9531H21.8866L20.1532 34.8717ZM19.6496 36.9531H6.13164L6.94891 35.9726C9.81406 32.5342 11.831 28.4934 12.8906 24.1957C13.9502 28.4926 15.9672 32.5334 18.8323 35.9717L19.6496 36.9531ZM12.0312 16.0488V17.1875C12.0312 23.6362 9.75734 29.9166 5.62805 34.8726L3.89469 36.9531H2.66062L12.0312 16.0488ZM31.7969 41.2921C31.7969 39.7315 32.6408 38.5782 33.5337 37.357C34.1232 36.5535 34.7256 35.7302 35.0298 34.7978C35.5644 35.1115 36.0938 35.5652 36.0938 36.0938V36.9531H37.8125V36.0938C37.8125 35.4741 37.5951 34.9491 37.2745 34.5116C37.9586 32.8694 39.5871 31.8192 40.6201 31.2941C40.9905 32.3563 41.7665 33.5105 42.6267 34.7901C43.9948 36.8259 45.5469 39.1325 45.5469 41.2921C45.5469 43.743 44.2303 45.0416 42.6173 45.7179C42.8398 45.2169 42.9688 44.6669 42.9688 44.0851C42.9688 43.1716 42.6542 42.2744 42.0836 41.5602L38.6719 37.296L35.261 41.5602C34.6895 42.2735 34.375 43.1707 34.375 44.0851C34.375 44.5827 34.4773 45.0536 34.6431 45.4945C32.8986 44.5861 31.7969 43.0745 31.7969 41.2921ZM38.6298 46.4062C38.518 46.4062 38.4098 46.3985 38.2998 46.3942C37.0743 46.3332 36.0938 45.3252 36.0938 44.0851C36.0938 43.56 36.2742 43.0444 36.6034 42.6345L38.6719 40.0477L40.7412 42.6353C41.0695 43.0444 41.25 43.56 41.25 44.0851C41.25 45.3441 40.2402 46.3676 38.989 46.4002C38.867 46.4028 38.7449 46.4062 38.6298 46.4062ZM45.9886 36.9531C45.4102 35.8643 44.7159 34.8176 44.0524 33.831C43.0968 32.4105 42.1094 30.9418 42.1094 30.0781V28.8767L40.9724 29.2652C40.8117 29.3193 37.4249 30.5061 35.9296 33.3386C35.2756 32.9467 34.6904 32.7559 34.6345 32.7388L33.5156 32.3838V33.5577C33.5156 34.473 32.8823 35.3392 32.1475 36.3421C32.0023 36.5406 31.8545 36.7452 31.7075 36.9531H24.6271L14.2003 12.8906H41.5534L52.3402 36.9531H45.9886Z" fill="#00BB98"/>
<path d="M31.7969 14.6094H33.5156V16.3281H31.7969V14.6094Z" fill="#00BB98"/>
<path d="M28.3594 14.6094H30.0781V16.3281H28.3594V14.6094Z" fill="#00BB98"/>
</g>
<defs>
<clipPath id="clip0_1310_11099">
<rect width="55" height="55" fill="white"/>
</clipPath>
</defs>
</svg>
