<svg width="49" height="55" viewBox="0 0 49 55" fill="none" xmlns="http://www.w3.org/2000/svg">
<path d="M45.2871 34.011H44.3085V17.9155C44.3085 11.6552 39.221 6.57575 32.9688 6.57575H32.6291C31.3997 3.15444 28.1158 0.808838 24.4438 0.808838C20.7637 0.808838 17.4798 3.15444 16.2585 6.57575H16.032C9.77982 6.57575 4.69229 11.6552 4.69229 17.9155V34.011H3.71364C1.70773 34.011 0.0820312 35.6368 0.0820312 37.6346V45.7066C0.0820312 47.7044 1.70773 49.3302 3.71364 49.3302H4.69229V49.7103C4.69229 52.1853 6.7063 54.1912 9.1732 54.1912H39.8276C42.3026 54.1912 44.3085 52.1853 44.3085 49.7103V49.3302H45.2871C47.2931 49.3302 48.9188 47.7044 48.9188 45.7066V37.6346C48.9188 35.6368 47.2931 34.011 45.2871 34.011ZM4.69229 47.7125H3.71364C2.60555 47.7125 1.69968 46.8147 1.69968 45.7066V37.6346C1.69968 36.5265 2.60556 35.6287 3.71364 35.6287H4.69229V47.7125ZM24.4438 2.42648C27.2342 2.42648 29.7497 4.09266 30.8901 6.57575H17.9974C19.1298 4.09266 21.6452 2.42648 24.4438 2.42648ZM42.6909 49.7103C42.6909 51.2956 41.4129 52.5735 39.8276 52.5735H9.1732C7.59599 52.5735 6.30993 51.2956 6.30993 49.7103V25.478C7.11876 26.1897 8.18641 26.6103 9.34302 26.6103H12.3276V27.7588C12.3276 28.6405 13.0474 29.3522 13.9291 29.3522H16.3232C17.2048 29.3522 17.9247 28.6405 17.9247 27.7588V26.6103H31.0842V27.7588C31.0842 28.6405 31.8041 29.3522 32.6857 29.3522H35.0717C35.9533 29.3522 36.6732 28.6405 36.6732 27.7588V26.6103H39.6739C40.8306 26.6103 41.882 26.1897 42.6908 25.4861L42.6909 49.7103ZM13.9452 27.7588V23.3831L16.307 23.3669L16.3232 27.7346L13.9452 27.7588ZM32.7019 27.7588V23.3831L35.0555 23.3669L35.0717 27.7346L32.7019 27.7588ZM42.6909 21.9677C42.6909 23.6339 41.332 24.9927 39.6739 24.9927H36.6732V23.3669C36.6732 22.4772 35.9533 21.7655 35.0717 21.7655H32.6857C31.8041 21.7655 31.0842 22.4772 31.0842 23.3669V24.9927H17.9247V23.3669C17.9247 22.4772 17.2048 21.7655 16.3232 21.7655H13.9291C13.0475 21.7655 12.3276 22.4772 12.3276 23.3669V24.9927H9.34303C7.66881 24.9927 6.30994 23.6339 6.30994 21.9677V17.9155C6.30994 12.553 10.6695 8.1934 16.032 8.1934H32.9688C38.3313 8.1934 42.6909 12.553 42.6909 17.9155L42.6909 21.9677ZM47.3012 45.7066C47.3012 46.8147 46.3952 47.7125 45.2871 47.7125H44.3085V35.6287H45.2871C46.3952 35.6287 47.3012 36.5265 47.3012 37.6346V45.7066Z" fill="#00BB98"/>
<path d="M33.3256 35.103H15.6791C13.9098 35.103 12.4707 36.5422 12.4707 38.3115V46.7662C12.4707 48.6761 14.0252 50.2306 15.9358 50.2306H33.0688C34.9795 50.2306 36.534 48.6761 36.534 46.7662V38.3115C36.534 36.5422 35.0949 35.103 33.3256 35.103ZM15.6791 36.7207H33.3256C34.2031 36.7207 34.9163 37.4339 34.9163 38.3115V38.8778H14.0883V38.3115C14.0883 37.4339 14.8016 36.7207 15.6791 36.7207ZM33.0688 48.6129H15.9358C14.9169 48.6129 14.0883 47.7843 14.0883 46.7662V40.4955H15.7874V42.2474C15.7874 42.6944 16.1491 43.0562 16.5962 43.0562C17.0432 43.0562 17.405 42.6944 17.405 42.2474V40.4955H34.9163V46.7662C34.9163 47.7843 34.0878 48.6129 33.0688 48.6129Z" fill="#00BB98"/>
<path d="M40.1597 41.8579C39.7126 41.8579 39.3508 42.2197 39.3508 42.6667V46.0963C39.3508 47.0924 38.8374 48.0015 37.9773 48.5268C37.5957 48.7598 37.4757 49.2582 37.7087 49.6389C37.8611 49.8885 38.1273 50.0259 38.3998 50.0259C38.5436 50.0259 38.6889 49.988 38.8208 49.9074C40.166 49.0852 40.9685 47.6603 40.9685 46.0963V42.6667C40.9685 42.2197 40.6067 41.8579 40.1597 41.8579Z" fill="#00BB98"/>
<path d="M40.1584 38.6313C39.7114 38.6313 39.3496 38.9931 39.3496 39.4402V39.8785C39.3496 40.3256 39.7114 40.6874 40.1584 40.6874C40.6055 40.6874 40.9673 40.3256 40.9673 39.8785V39.4402C40.9673 38.9931 40.6055 38.6313 40.1584 38.6313Z" fill="#00BB98"/>
</svg>
