<svg width="55" height="55" viewBox="0 0 55 55" fill="none" xmlns="http://www.w3.org/2000/svg">
<path d="M35.2344 43.8281C35.0065 43.8281 34.7879 43.7376 34.6267 43.5764C34.4655 43.4153 34.375 43.1967 34.375 42.9688V20.625C34.375 20.3971 34.4655 20.1785 34.6267 20.0173C34.7879 19.8562 35.0065 19.7656 35.2344 19.7656C35.4623 19.7656 35.6809 19.8562 35.842 20.0173C36.0032 20.1785 36.0938 20.3971 36.0938 20.625V42.9688C36.0938 43.1967 36.0032 43.4153 35.842 43.5764C35.6809 43.7376 35.4623 43.8281 35.2344 43.8281Z" fill="#00BB98"/>
<path d="M45.5469 51.5625H29.2188C28.9908 51.5625 28.7722 51.472 28.6111 51.3108C28.4499 51.1496 28.3594 50.931 28.3594 50.7031C28.3594 50.4752 28.4499 50.2566 28.6111 50.0955C28.7722 49.9343 28.9908 49.8438 29.2188 49.8438H45.5469C46.2306 49.8438 46.8864 49.5721 47.3699 49.0886C47.8534 48.6051 48.125 47.9494 48.125 47.2656V22.3438C48.125 22.1158 48.2155 21.8972 48.3767 21.7361C48.5379 21.5749 48.7565 21.4844 48.9844 21.4844C49.2123 21.4844 49.4309 21.5749 49.592 21.7361C49.7532 21.8972 49.8438 22.1158 49.8438 22.3438V47.2656C49.8424 48.4048 49.3892 49.4969 48.5837 50.3025C47.7782 51.108 46.6861 51.5611 45.5469 51.5625Z" fill="#00BB98"/>
<path d="M48.9844 19.7656C48.7565 19.7656 48.5379 19.6751 48.3767 19.5139C48.2155 19.3528 48.125 19.1342 48.125 18.9062V16.3281C48.125 15.6444 47.8534 14.9886 47.3699 14.5051C46.8864 14.0216 46.2306 13.75 45.5469 13.75H24.9219C24.2381 13.75 23.5824 14.0216 23.0989 14.5051C22.6154 14.9886 22.3438 15.6444 22.3438 16.3281V18.0469C22.3438 18.2748 22.2532 18.4934 22.092 18.6545C21.9309 18.8157 21.7123 18.9062 21.4844 18.9062C21.2565 18.9062 21.0379 18.8157 20.8767 18.6545C20.7155 18.4934 20.625 18.2748 20.625 18.0469V16.3281C20.6264 15.1889 21.0795 14.0968 21.885 13.2913C22.6906 12.4858 23.7827 12.0326 24.9219 12.0312H45.5469C46.6861 12.0326 47.7782 12.4858 48.5837 13.2913C49.3892 14.0968 49.8424 15.1889 49.8438 16.3281V18.9062C49.8438 19.1342 49.7532 19.3528 49.592 19.5139C49.4309 19.6751 49.2123 19.7656 48.9844 19.7656Z" fill="#00BB98"/>
<path d="M42.1094 43.8281C41.8815 43.8281 41.6629 43.7376 41.5017 43.5764C41.3405 43.4153 41.25 43.1967 41.25 42.9688V20.625C41.25 20.3971 41.3405 20.1785 41.5017 20.0173C41.6629 19.8562 41.8815 19.7656 42.1094 19.7656C42.3373 19.7656 42.5559 19.8562 42.717 20.0173C42.8782 20.1785 42.9688 20.3971 42.9688 20.625V42.9688C42.9688 43.1967 42.8782 43.4153 42.717 43.5764C42.5559 43.7376 42.3373 43.8281 42.1094 43.8281Z" fill="#00BB98"/>
<path d="M28.3594 23.2031C28.1315 23.2031 27.9129 23.1126 27.7517 22.9514C27.5905 22.7903 27.5 22.5717 27.5 22.3438V20.625C27.5 20.3971 27.5905 20.1785 27.7517 20.0173C27.9129 19.8562 28.1315 19.7656 28.3594 19.7656C28.5873 19.7656 28.8059 19.8562 28.967 20.0173C29.1282 20.1785 29.2188 20.3971 29.2188 20.625V22.3438C29.2188 22.5717 29.1282 22.7903 28.967 22.9514C28.8059 23.1126 28.5873 23.2031 28.3594 23.2031Z" fill="#00BB98"/>
<path d="M28.3594 55C27.6756 55 27.0199 54.7284 26.5364 54.2449C26.0529 53.7614 25.7813 53.1056 25.7812 52.4219V50.7031C25.7812 50.4752 25.8718 50.2566 26.033 50.0955C26.1941 49.9343 26.4127 49.8438 26.6406 49.8438H30.0781C30.306 49.8438 30.5246 49.9343 30.6858 50.0955C30.847 50.2566 30.9375 50.4752 30.9375 50.7031V52.4219C30.9375 53.1056 30.6659 53.7614 30.1824 54.2449C29.6989 54.7284 29.0431 55 28.3594 55ZM27.5 51.5625V52.4219C27.5 52.6498 27.5905 52.8684 27.7517 53.0295C27.9129 53.1907 28.1315 53.2812 28.3594 53.2812C28.5873 53.2812 28.8059 53.1907 28.967 53.0295C29.1282 52.8684 29.2188 52.6498 29.2188 52.4219V51.5625H27.5Z" fill="#00BB98"/>
<path d="M42.1094 55C41.4256 55 40.7699 54.7284 40.2864 54.2449C39.8029 53.7614 39.5312 53.1056 39.5312 52.4219V50.7031C39.5312 50.4752 39.6218 50.2566 39.783 50.0955C39.9441 49.9343 40.1627 49.8438 40.3906 49.8438H43.8281C44.056 49.8438 44.2746 49.9343 44.4358 50.0955C44.597 50.2566 44.6875 50.4752 44.6875 50.7031V52.4219C44.6875 53.1056 44.4159 53.7614 43.9324 54.2449C43.4489 54.7284 42.7931 55 42.1094 55ZM41.25 51.5625V52.4219C41.25 52.6498 41.3405 52.8684 41.5017 53.0295C41.6629 53.1907 41.8815 53.2812 42.1094 53.2812C42.3373 53.2812 42.5559 53.1907 42.717 53.0295C42.8782 52.8684 42.9688 52.6498 42.9688 52.4219V51.5625H41.25Z" fill="#00BB98"/>
<path d="M41.25 13.75H29.2188C28.9908 13.75 28.7722 13.6595 28.6111 13.4983C28.4499 13.3371 28.3594 13.1185 28.3594 12.8906V0.859375C28.3594 0.631455 28.4499 0.412869 28.6111 0.251705C28.7722 0.090541 28.9908 0 29.2188 0L41.25 0C41.4779 0 41.6965 0.090541 41.8577 0.251705C42.0188 0.412869 42.1094 0.631455 42.1094 0.859375V12.8906C42.1094 13.1185 42.0188 13.3371 41.8577 13.4983C41.6965 13.6595 41.4779 13.75 41.25 13.75ZM30.0781 12.0312H40.3906V1.71875H30.0781V12.0312Z" fill="#00BB98"/>
<path d="M44.6875 11.1719H43.8281C43.6002 11.1719 43.3816 11.0813 43.2205 10.9202C43.0593 10.759 42.9688 10.5404 42.9688 10.3125C42.9688 10.0846 43.0593 9.86599 43.2205 9.70483C43.3816 9.54367 43.6002 9.45312 43.8281 9.45312H44.6875C44.9154 9.45312 45.134 9.54367 45.2952 9.70483C45.4563 9.86599 45.5469 10.0846 45.5469 10.3125C45.5469 10.5404 45.4563 10.759 45.2952 10.9202C45.134 11.0813 44.9154 11.1719 44.6875 11.1719Z" fill="#00BB98"/>
<path d="M26.6406 11.1719H25.7812C25.5533 11.1719 25.3347 11.0813 25.1736 10.9202C25.0124 10.759 24.9219 10.5404 24.9219 10.3125C24.9219 10.0846 25.0124 9.86599 25.1736 9.70483C25.3347 9.54367 25.5533 9.45312 25.7812 9.45312H26.6406C26.8685 9.45312 27.0871 9.54367 27.2483 9.70483C27.4095 9.86599 27.5 10.0846 27.5 10.3125C27.5 10.5404 27.4095 10.759 27.2483 10.9202C27.0871 11.0813 26.8685 11.1719 26.6406 11.1719Z" fill="#00BB98"/>
<path d="M18.9058 51.5624C18.7922 51.5628 18.6797 51.5403 18.5749 51.4963C12.4854 48.962 8.17819 42.5089 6.11569 32.8349C6.08773 32.723 6.0826 32.6066 6.10062 32.4926C6.11863 32.3786 6.15941 32.2694 6.22053 32.1715C6.28165 32.0737 6.36185 31.9891 6.45635 31.9229C6.55086 31.8567 6.65773 31.8102 6.7706 31.7862C6.88346 31.7621 7.00001 31.7611 7.11328 31.7831C7.22656 31.8051 7.33424 31.8497 7.42992 31.9142C7.52559 31.9787 7.60729 32.0618 7.67015 32.1586C7.733 32.2554 7.77572 32.3638 7.79577 32.4774C9.1278 38.7199 12.1339 46.7353 18.9058 49.7672C27.3895 45.9765 30.0373 34.4067 30.8605 27.2928C26.6812 26.2201 22.6616 24.6008 18.9058 22.4769C15.1499 24.5993 11.1306 26.2174 6.95186 27.2894C7.01975 27.8712 7.09796 28.4728 7.18905 29.0941C7.21654 29.3168 7.15584 29.5414 7.01992 29.7199C6.884 29.8985 6.68364 30.0168 6.46165 30.0495C6.23967 30.0823 6.01367 30.027 5.83196 29.8953C5.65025 29.7637 5.52723 29.5662 5.48921 29.345C5.35428 28.4367 5.24686 27.5601 5.16092 26.7308C5.13925 26.5238 5.19342 26.316 5.31338 26.146C5.43334 25.9759 5.61093 25.8551 5.81319 25.8061C10.2551 24.7398 14.5188 23.0345 18.4709 20.7435C18.603 20.6667 18.753 20.6262 18.9058 20.6262C19.0585 20.6262 19.2086 20.6667 19.3406 20.7435C23.2926 23.0348 27.5563 24.7401 31.9983 25.8061C32.2006 25.8549 32.3783 25.9755 32.4984 26.1454C32.6185 26.3153 32.6729 26.523 32.6515 26.7299C31.878 34.2194 29.1108 47.3971 19.2315 51.498C19.1281 51.5404 19.0175 51.5623 18.9058 51.5624Z" fill="#00BB98"/>
<path d="M17.1848 40.3906C16.9569 40.3905 16.7383 40.2999 16.5772 40.1388L13.1397 36.7013C12.9831 36.5392 12.8965 36.3221 12.8985 36.0968C12.9004 35.8715 12.9908 35.6559 13.1501 35.4966C13.3095 35.3372 13.525 35.2469 13.7503 35.2449C13.9757 35.2429 14.1928 35.3296 14.3548 35.4861L17.1848 38.316L23.4522 32.0486C23.6143 31.8921 23.8313 31.8054 24.0567 31.8074C24.282 31.8094 24.4975 31.8997 24.6569 32.0591C24.8162 32.2184 24.9066 32.434 24.9085 32.6593C24.9105 32.8846 24.8239 33.1017 24.6673 33.2638L17.7923 40.1388C17.6312 40.2999 17.4127 40.3905 17.1848 40.3906Z" fill="#00BB98"/>
</svg>
