<svg width="55" height="55" viewBox="0 0 55 55" fill="none" xmlns="http://www.w3.org/2000/svg">
<g clip-path="url(#clip0_1310_11083)">
<path d="M49.6284 10.2808C49.3556 9.92925 48.8496 9.86523 48.498 10.138C48.1464 10.4107 48.0825 10.9168 48.3551 11.2684C50.8304 14.4596 52.2547 18.3689 52.4198 22.3763L41.6014 19.4775C42.0531 16.6106 42.2311 13.6986 42.1291 10.8098C42.0701 9.13766 41.9155 7.45673 41.6704 5.79406C43.1904 6.54784 44.6135 7.50303 45.8871 8.63224C46.2201 8.92744 46.7292 8.89671 47.0244 8.56392C47.3196 8.23092 47.2889 7.72174 46.956 7.42665C44.8513 5.56074 42.3886 4.15449 39.7324 3.25805L40.5109 1.07686C40.6605 0.657811 40.4419 0.196865 40.0229 0.0473346C39.6039 -0.102196 39.143 0.116192 38.9934 0.535243L38.1828 2.80645C29.063 0.543514 19.5057 4.6902 14.8876 12.9343C14.8254 13.0497 14.7672 13.1972 14.7797 13.3949L15.0652 17.5947C15.1198 18.3965 15.6779 19.075 16.4543 19.2831L24.4103 21.4149C25.1743 21.6198 26.0074 21.3187 26.4573 20.6472L27.4916 19.1076L27.6174 20.9581C27.672 21.7599 28.2301 22.4384 29.0065 22.6464L32.206 23.5038L27.7005 40.3181L20.1643 40.2963H20.1619C19.718 40.2963 19.3576 40.6555 19.3562 41.0997C19.355 41.5447 19.7146 41.9065 20.1597 41.9076L35.9376 41.9533H35.9454C36.7343 41.9533 37.5031 41.6305 38.0554 41.0669L43.7338 35.2727C44.9056 34.077 46.6887 33.6462 48.2769 34.1759L50.0038 34.7514L39.2362 45.5935C38.7858 46.0471 38.1607 46.3073 37.5213 46.3073H6.33419C6.25266 45.0829 6.59178 43.8912 7.47296 43.013C8.20418 42.2843 9.1743 41.8834 10.2059 41.8834H10.2192L16.3991 41.9059H16.4022C16.8457 41.9059 17.2061 41.5471 17.2078 41.1032C17.2094 40.6582 16.85 40.2962 16.4051 40.2946L10.2248 40.2721C8.75343 40.2665 7.37542 40.8352 6.33548 41.8718C5.02547 43.1776 4.72287 44.9686 4.72287 46.7907C4.72287 47.4127 5.22882 47.9186 5.85079 47.9186H7.78835L6.12171 51.5814C5.85219 52.1738 5.84306 52.819 6.0449 53.3888H1.75879C1.31385 53.3888 0.953125 53.7494 0.953125 54.1944C0.953125 54.6395 1.31385 55.0001 1.75879 55.0001H51.3363C51.7812 55.0001 52.1419 54.6395 52.1419 54.1944C52.1419 53.7494 51.7812 53.3888 51.3363 53.3888H43.7727C43.9746 52.819 43.9654 52.1737 43.6959 51.5813L41.1398 45.9635L51.6962 35.3338C52.2805 34.7545 52.0261 33.7199 51.2525 33.4691L48.7864 32.6471C46.6178 31.9243 44.1828 32.512 42.5829 34.1446L36.9045 39.9388C36.6535 40.195 36.304 40.3418 35.9456 40.3418H35.942L29.3673 40.3228L33.7622 23.9206L36.9623 24.778C37.7262 24.9832 38.5594 24.6818 39.0094 24.0104L40.0437 22.4707L40.1695 24.3213C40.224 25.123 40.7822 25.8015 41.5585 26.0096L49.5145 28.1414C50.2785 28.3463 51.1116 28.0453 51.5616 27.3737L53.9088 23.8793C53.9781 23.7673 54.0457 23.6243 54.0456 23.4268C54.1063 18.7 52.5381 14.0319 49.6284 10.2808ZM8.32138 53.3888C8.20601 53.3888 8.09386 53.3643 7.98794 53.3161C7.58361 53.1321 7.40432 52.6532 7.58844 52.2486L9.55876 47.9185H11.3301L9.05549 52.9165C8.92498 53.2034 8.63687 53.3888 8.32138 53.3888ZM24.1988 53.3888H10.6109L13.1003 47.9186H25.6642L24.1988 53.3888ZM25.867 53.3888L27.3324 47.9186H36.7175L39.207 53.3888H25.867ZM42.2293 52.2486C42.4133 52.6533 42.2341 53.1322 41.8282 53.3168C41.7239 53.3645 41.6127 53.3888 41.4974 53.3888C41.1818 53.3888 40.8931 53.203 40.7622 52.9165L38.4384 47.8102C38.9654 47.6859 39.4656 47.4568 39.9035 47.137L42.2293 52.2486ZM25.1196 19.7485C25.0557 19.8438 24.9381 19.8879 24.8272 19.8582L16.8712 17.7264C16.7603 17.6968 16.6806 17.5998 16.6728 17.4853L16.4637 14.41L26.8383 17.1899L25.1196 19.7485ZM27.6295 15.7337L16.8196 12.8371C20.7216 6.65923 27.7404 3.24323 34.8782 3.87992C33.6255 5.24664 32.4751 6.70929 31.4496 8.24638C29.8925 10.5801 28.6098 13.0959 27.6295 15.7337ZM37.6718 23.1119C37.6078 23.2073 37.4903 23.2513 37.3793 23.2216L29.4234 21.0898C29.3125 21.0602 29.2328 20.9632 29.2249 20.8486L29.0159 17.7734L39.3905 20.5532L37.6718 23.1119ZM40.0358 19.0579L29.1933 16.1527C30.1232 13.684 31.3303 11.3285 32.79 9.14078C33.9762 7.36306 35.3371 5.68954 36.8357 4.15728C37.8825 4.36052 38.9173 4.65486 39.9168 5.03233C40.2467 6.95883 40.4502 8.91895 40.5189 10.8667C40.6152 13.596 40.4522 16.3471 40.0358 19.0579ZM50.2239 26.4753C50.1599 26.5706 50.0424 26.6147 49.9314 26.5849L41.9754 24.4532C41.8646 24.4235 41.7848 24.3265 41.777 24.212L41.568 21.1369L51.9425 23.9167L50.2239 26.4753Z" fill="#00BB98"/>
</g>
<defs>
<clipPath id="clip0_1310_11083">
<rect width="55" height="55" fill="white"/>
</clipPath>
</defs>
</svg>
