<svg width="54" height="60" viewBox="0 0 54 60" fill="none" xmlns="http://www.w3.org/2000/svg">
<path d="M26.967 60C41.8619 60 53.9339 47.8679 53.9339 33.033C53.9339 19.5195 43.9039 8.22823 30.9309 6.30631C31.2312 5.70571 31.4114 5.04504 31.4114 4.32432C31.4114 1.92192 29.4895 0 27.0871 0C24.6847 0 22.7628 1.92192 22.7628 4.32432C22.7628 5.04504 22.9429 5.70571 23.2432 6.30631C10.1502 8.10811 0 19.3994 0 33.033C0 47.9279 12.1321 60 26.967 60ZM27.0871 2.88288C27.8679 2.88288 28.5285 3.54354 28.5285 4.32432C28.5285 5.1051 27.8679 5.76577 27.0871 5.76577C26.3063 5.76577 25.6456 5.1051 25.6456 4.32432C25.6456 3.54354 26.3063 2.88288 27.0871 2.88288ZM26.967 8.94895C40.2402 8.94895 51.0511 19.7598 51.0511 33.033C51.0511 46.3063 40.2402 57.1171 26.967 57.1171C13.6937 57.1171 2.88288 46.3063 2.88288 33.033C2.88288 19.7598 13.6937 8.94895 26.967 8.94895Z" fill="#00BB98"/>
<path d="M26.9669 53.033C38.018 53.033 46.9669 44.0841 46.9669 33.033C46.9669 21.982 38.018 13.033 26.9669 13.033C15.9159 13.033 6.96692 21.982 6.96692 33.033C7.02698 44.0841 15.9759 53.033 26.9669 53.033ZM44.6846 33.033C44.6846 42.7627 36.7567 50.7507 26.9669 50.7507C17.2372 50.7507 9.2492 42.8228 9.2492 33.033C9.2492 23.3033 17.1771 15.3153 26.9669 15.3153C36.7567 15.3153 44.6846 23.3033 44.6846 33.033Z" fill="#00BB98"/>
<path d="M18.1982 43.2434C18.3183 43.2434 18.4384 43.1833 18.4985 43.1232L26.006 37.9581C26.3063 38.0181 26.6666 38.0782 26.9669 38.0782C29.7297 38.0782 32.012 35.7959 32.012 33.0331C32.012 32.853 32.012 32.6728 32.012 32.5527L38.3784 22.5226C38.4985 22.2824 38.4985 21.9821 38.3183 21.8019C38.1381 21.6217 37.8378 21.5617 37.5976 21.7418L27.6276 28.0482C27.4474 28.0482 27.2072 27.9881 27.027 27.9881C24.2642 27.9881 21.982 30.2704 21.982 33.0331C21.982 33.5737 22.1021 34.1142 22.2823 34.6548L17.7778 42.4025C17.6576 42.6427 17.6576 42.9431 17.8979 43.1232C17.9579 43.1833 18.0781 43.2434 18.1982 43.2434ZM29.1291 28.4686L36.036 24.0842L31.6516 30.9911C31.1111 29.91 30.2102 28.9491 29.1291 28.4686ZM26.9669 30.871C28.1681 30.871 29.1291 31.8319 29.1291 33.0331C29.1291 34.2343 28.1681 35.1953 26.9669 35.1953C25.7657 35.1953 24.8048 34.2343 24.8048 33.0331C24.8048 31.8319 25.8258 30.871 26.9669 30.871ZM24.6847 37.5376L20 40.7809L22.8228 35.916C23.3033 36.5767 23.9639 37.1172 24.6847 37.5376Z" fill="#00BB98"/>
<path d="M10.0901 33.033C10.0901 33.3333 10.3303 33.6336 10.6907 33.6336H14.955C15.2553 33.6336 15.5556 33.3934 15.5556 33.033C15.5556 32.7327 15.3153 32.4324 14.955 32.4324H10.6907C10.3303 32.4324 10.0901 32.7327 10.0901 33.033Z" fill="#00BB98"/>
<path d="M39.2793 33.6336H43.5436C43.8439 33.6336 44.1442 33.3934 44.1442 33.033C44.1442 32.7327 43.9039 32.4324 43.5436 32.4324H39.2793C38.979 32.4324 38.6787 32.6727 38.6787 33.033C38.7388 33.3333 38.979 33.6336 39.2793 33.6336Z" fill="#00BB98"/>
<path d="M27.087 21.4414C27.3873 21.4414 27.6876 21.2012 27.6876 20.8408V16.5766C27.6876 16.2763 27.4474 15.976 27.087 15.976C26.7267 15.976 26.4865 16.2162 26.4865 16.5766V20.8408C26.5465 21.1411 26.7867 21.4414 27.087 21.4414Z" fill="#00BB98"/>
<path d="M27.087 44.6245C26.7867 44.6245 26.4865 44.8648 26.4865 45.2251V49.4894C26.4865 49.7897 26.7267 50.09 27.087 50.09C27.4474 50.09 27.6876 49.8497 27.6876 49.4894V45.2251C27.6876 44.9248 27.4474 44.6245 27.087 44.6245Z" fill="#00BB98"/>
</svg>
