<svg width="48" height="48" viewBox="0 0 48 48" fill="none" xmlns="http://www.w3.org/2000/svg">
<path d="M10.9393 21.5C9.51933 21.5 8.07933 20.98 6.97933 19.92C3.29933 16.42 1.81933 12.6 2.67933 8.86C3.69933 4.46 7.55933 2.5 10.9393 2.5C14.3193 2.5 18.1993 4.48 19.1993 8.86C20.0593 12.6 18.5593 16.42 14.8993 19.92C13.7993 20.98 12.3793 21.5 10.9393 21.5ZM5.59933 9.54C4.83933 12.88 7.05933 15.84 9.05933 17.74C10.1193 18.76 11.7793 18.74 12.8393 17.74C14.8393 15.84 17.0593 12.88 16.2793 9.52C15.5993 6.56 12.9793 5.5 10.9593 5.5C8.91933 5.5 6.29933 6.56 5.59933 9.54Z" fill="#00BB98"/>
<path d="M11.0195 12.4C9.91953 12.4 9.01953 11.5 9.01953 10.4C9.01953 9.29999 9.89953 8.39999 11.0195 8.39999H11.0395C12.1395 8.39999 13.0395 9.29999 13.0395 10.4C13.0395 11.5 12.1395 12.4 11.0195 12.4Z" fill="#00BB98"/>
<path d="M36.9788 45.5C35.5588 45.5 34.1188 44.98 32.9988 43.92C29.2988 40.42 27.7988 36.6 28.6788 32.84C29.6988 28.46 33.5788 26.48 36.9788 26.48C40.3788 26.48 44.2588 28.46 45.2788 32.84C46.1388 36.58 44.6388 40.42 40.9388 43.9C39.8388 44.98 38.4188 45.5 36.9788 45.5ZM36.9788 29.5C34.9388 29.5 32.2988 30.56 31.5988 33.54C30.8188 36.88 33.0588 39.86 35.0588 41.76C36.1188 42.78 37.7988 42.78 38.8788 41.76C40.8788 39.86 43.1188 36.9 42.3388 33.56C41.6788 30.56 39.0388 29.5 36.9788 29.5Z" fill="#00BB98"/>
<path d="M37.0586 36.4C35.9586 36.4 35.0586 35.5 35.0586 34.4C35.0586 33.3 35.9386 32.4 37.0586 32.4H37.0786C38.1786 32.4 39.0786 33.3 39.0786 34.4C39.0786 35.5 38.1586 36.4 37.0586 36.4Z" fill="#00BB98"/>
<path d="M23.9989 39.5H18.6389C16.3189 39.5 14.2989 38.1 13.4989 35.94C12.6789 33.78 13.2789 31.4 15.0189 29.86L30.9989 15.88C31.9589 15.04 31.9789 13.9 31.6989 13.12C31.3989 12.34 30.6389 11.5 29.3589 11.5H23.9989C23.1789 11.5 22.4989 10.82 22.4989 10C22.4989 9.18 23.1789 8.5 23.9989 8.5H29.3589C31.6789 8.5 33.6989 9.9 34.4989 12.06C35.3189 14.22 34.7189 16.6 32.9789 18.14L16.9989 32.12C16.0389 32.96 16.0189 34.1 16.2989 34.88C16.5989 35.66 17.3589 36.5 18.6389 36.5H23.9989C24.8189 36.5 25.4989 37.18 25.4989 38C25.4989 38.82 24.8189 39.5 23.9989 39.5Z" fill="#00BB98"/>
<path d="M23.9989 39.5H18.6389C16.3189 39.5 14.2989 38.1 13.4989 35.94C12.6789 33.78 13.2789 31.4 15.0189 29.86L30.9989 15.88C31.9589 15.04 31.9789 13.9 31.6989 13.12C31.3989 12.34 30.6389 11.5 29.3589 11.5H23.9989C23.1789 11.5 22.4989 10.82 22.4989 10C22.4989 9.18 23.1789 8.5 23.9989 8.5H29.3589C31.6789 8.5 33.6989 9.9 34.4989 12.06C35.3189 14.22 34.7189 16.6 32.9789 18.14L16.9989 32.12C16.0389 32.96 16.0189 34.1 16.2989 34.88C16.5989 35.66 17.3589 36.5 18.6389 36.5H23.9989C24.8189 36.5 25.4989 37.18 25.4989 38C25.4989 38.82 24.8189 39.5 23.9989 39.5Z" fill="#00BB98"/>
</svg>
