<svg width="48" height="48" viewBox="0 0 48 48" fill="none" xmlns="http://www.w3.org/2000/svg">
<path fill-rule="evenodd" clip-rule="evenodd" d="M28.3084 2.86039C28.3084 2.70991 28.3072 2.55934 28.3059 2.40874C28.3031 2.07517 28.3003 1.74142 28.3113 1.40812C28.3376 0.601202 28.9416 0.00188317 29.7081 4.42555e-06C30.4756 -0.00187432 31.0955 0.594626 31.1115 1.39873C31.1312 2.36722 31.1303 3.33571 31.1115 4.3042C31.0965 5.11112 30.4831 5.7095 29.7156 5.71138C28.9481 5.7142 28.3385 5.11676 28.3103 4.31266C28.2987 3.98003 28.3017 3.64696 28.3047 3.31405V3.31395V3.31385V3.31374C28.3061 3.16257 28.3075 3.01143 28.3075 2.86039H28.3084ZM3 20.9038C3.37387 20.0922 4.01734 19.8461 4.88908 19.8593C7.4188 19.8968 9.94947 19.8874 12.4792 19.8677C14.3532 19.8527 15.7623 20.5967 16.6425 22.2791C16.6549 22.3028 16.6731 22.3238 16.7023 22.3575L16.7024 22.3576C16.7218 22.38 16.7461 22.4081 16.7768 22.4463C17.428 22.081 18.0816 21.7185 18.7355 21.3558C20.325 20.4742 21.917 19.5912 23.483 18.6634C24.5229 18.0472 25.1898 17.0327 25.4923 15.8726C25.8889 14.3512 26.2315 12.816 26.574 11.2805L26.574 11.2805L26.574 11.2805L26.574 11.2805C26.6761 10.8231 26.7781 10.3656 26.8816 9.9085C27.108 8.90713 27.6115 8.50038 28.6232 8.5389C32.6522 8.69389 35.8066 12.4908 35.2965 16.5226C35.056 18.4258 34.3337 20.1617 33.601 21.9014C33.5098 22.1175 33.4215 22.3336 33.3342 22.5506C33.3278 22.5662 33.3289 22.5851 33.3308 22.615C33.3319 22.6335 33.3332 22.6562 33.3332 22.6849H33.8292C34.5143 22.6849 35.1992 22.6842 35.8841 22.6836C37.5106 22.682 39.1369 22.6804 40.7637 22.6877C42.5156 22.6952 43.8871 23.4129 44.6949 24.9986C45.453 26.4856 45.3347 27.9594 44.3756 29.3309C44.1726 29.6212 44.1454 29.795 44.368 30.089C45.4455 31.515 45.437 33.5421 44.3652 34.9794C44.1896 35.2151 44.1163 35.3758 44.3258 35.6604C46.0129 37.9478 45.0651 41.0965 42.4057 42.0998C42.3061 42.1374 42.2075 42.1796 42.2084 42.1796C42.2192 42.4236 42.2383 42.6623 42.257 42.8969L42.2571 42.897C42.2973 43.4002 42.336 43.8839 42.2873 44.358C42.0985 46.1804 40.6585 47.6214 38.8351 47.9239C38.7844 47.9322 38.7355 47.952 38.6865 47.9717L38.6865 47.9718L38.6864 47.9718C38.6637 47.9809 38.641 47.9901 38.6181 47.9981H25.0264C24.8878 47.9838 24.7493 47.9691 24.6108 47.9543L24.6106 47.9543L24.6105 47.9543L24.6104 47.9543C24.3028 47.9216 23.995 47.8888 23.6868 47.861C21.2276 47.643 18.8181 47.1724 16.4556 46.4566C16.341 46.4218 16.1409 46.4228 16.0807 46.4932C15.3706 47.3255 14.4415 47.7558 13.4045 47.9972H4.03143L3 46.9657V20.9038ZM29.202 12.629L29.202 12.6289L29.202 12.6288C29.2835 12.2641 29.3654 11.8975 29.4467 11.5279C31.7504 12.3139 33.0202 14.4925 32.3601 16.8777C31.9771 18.2609 31.4409 19.6019 30.9049 20.9426L30.9049 20.9428C30.6994 21.4567 30.494 21.9705 30.2972 22.4867C30.2606 22.5844 30.0671 22.6717 29.9431 22.6764C29.6391 22.6887 29.3345 22.6871 29.0297 22.6855H29.0295H29.0293H29.0292C28.8188 22.6844 28.6083 22.6833 28.3978 22.6868C27.5242 22.6999 26.9023 23.2898 26.9023 24.0921C26.9023 24.8943 27.5251 25.4936 28.3997 25.4945C31.4454 25.4988 34.4906 25.4982 37.5361 25.4977H37.5361H37.5362H37.5363C38.5513 25.4975 39.5664 25.4974 40.5814 25.4974C41.7077 25.4983 42.3606 26.0131 42.3606 26.9027C42.3615 27.7894 41.7059 28.3098 40.5843 28.3098C40.3442 28.3098 40.1041 28.3091 39.8639 28.3084H39.8638H39.8637H39.8636C39.3229 28.3068 38.7819 28.3052 38.2415 28.3117C37.3669 28.322 36.7441 28.9129 36.7441 29.7151C36.7432 30.5183 37.366 31.111 38.2396 31.1204C38.6988 31.1255 39.1583 31.1243 39.6178 31.1231H39.6184C40.0177 31.1221 40.4171 31.1211 40.8163 31.1242C41.7293 31.1308 42.3606 31.7094 42.3606 32.5285C42.3606 33.3477 41.7293 33.9273 40.8172 33.9338C40.396 33.9371 39.9746 33.9362 39.553 33.9353H39.5529H39.5529H39.5528H39.5517C39.1304 33.9343 38.7089 33.9334 38.2875 33.9367C37.3754 33.9432 36.7441 34.5219 36.7441 35.341C36.7441 36.1602 37.3754 36.7397 38.2875 36.7463C38.7087 36.7496 39.1301 36.7487 39.5517 36.7477H39.5518H39.5518H39.5519H39.553C39.9743 36.7468 40.3958 36.7459 40.8172 36.7491C41.7293 36.7557 42.3606 37.3353 42.3606 38.1544C42.3606 38.9726 41.7303 39.5522 40.8172 39.5588C40.4178 39.5619 40.0183 39.5609 39.6187 39.5598C39.1592 39.5587 38.6997 39.5575 38.2405 39.5626C37.3857 39.572 36.7713 40.1375 36.745 40.9209C36.7187 41.6996 37.2908 42.2914 38.1485 42.3732C39.0052 42.4549 39.5772 43.0486 39.5491 43.8282C39.5218 44.6107 38.9075 45.1828 38.0517 45.1828C37.017 45.1833 35.9823 45.1856 34.9476 45.188H34.9476H34.9475H34.9474C31.8434 45.195 28.7394 45.2021 25.636 45.1584C22.8142 45.118 20.0571 44.5769 17.3489 43.786C17.0567 43.7006 17.0567 43.5356 17.0568 43.3116L17.0568 43.3031C17.059 41.1538 17.0589 39.0039 17.0587 36.8544L17.0586 35.2424C17.0586 34.5252 17.0589 33.8079 17.0592 33.0906V33.0905V33.0905V33.0904C17.0602 30.699 17.0612 28.3074 17.0511 25.9163C17.0502 25.5904 17.1535 25.4175 17.4381 25.2653C18.2563 24.8285 19.0707 24.3845 19.8851 23.9406C21.1389 23.2571 22.3925 22.5737 23.6596 21.9165C26.4918 20.4473 28.0512 18.0829 28.6815 15.0215C28.8454 14.225 29.0227 13.4316 29.202 12.6291L29.202 12.629ZM5.83033 45.1856H6.28216C6.98485 45.1856 7.68743 45.1858 8.38998 45.1861H8.39008H8.39018H8.39029C9.79517 45.1865 11.1999 45.1869 12.6051 45.1856C13.7041 45.1847 14.2471 44.6446 14.2471 43.5492C14.249 37.1465 14.248 30.7437 14.2471 24.341C14.2471 23.2175 13.7098 22.6868 12.576 22.6858C11.1813 22.6846 9.78665 22.685 8.39199 22.6854C7.69467 22.6856 6.99734 22.6858 6.30001 22.6858C6.19485 22.6858 6.09013 22.6922 5.97956 22.6989L5.97948 22.6989L5.97938 22.6989L5.97928 22.6989L5.97916 22.6989C5.93084 22.7019 5.88141 22.7049 5.83033 22.7074V45.1856ZM23.9132 7.94525C24.4092 7.68599 24.661 7.25575 24.722 6.66113H24.7211C24.6849 6.57724 24.6548 6.48765 24.6248 6.39804L24.6247 6.398L24.6247 6.39796C24.5595 6.20364 24.4942 6.00928 24.3669 5.873C23.6436 5.09802 22.9015 4.33525 22.119 3.62039C21.5977 3.14412 20.7889 3.23524 20.2892 3.73123C19.7875 4.2291 19.6945 5.0332 20.1727 5.55925C20.8856 6.34362 21.6409 7.09324 22.4215 7.81092C22.848 8.20264 23.3985 8.21391 23.9132 7.94525ZM34.8296 6.34262L34.8297 6.34259C34.9093 6.15758 35.0171 5.90719 35.1903 5.71608C35.8093 5.03598 36.4716 4.39251 37.1367 3.75562C37.7472 3.17039 38.5927 3.17791 39.1488 3.74435C39.6917 4.2967 39.6964 5.12804 39.1272 5.72078C38.479 6.39619 37.8158 7.05938 37.1395 7.70755C36.6923 8.13684 36.1531 8.23453 35.582 7.97621C35.0494 7.73573 34.7835 7.30174 34.7525 6.51173C34.7757 6.46783 34.8009 6.4095 34.8296 6.34262ZM10.0162 42.3694C10.7799 42.3769 11.4243 41.7457 11.4318 40.9801C11.4403 40.2154 10.8081 39.571 10.0434 39.5635C9.27972 39.556 8.63531 40.1872 8.62779 40.9528C8.61934 41.7175 9.25154 42.3619 10.0162 42.3694Z" fill="#00BB98"/>
</svg>
