<svg width="48" height="48" viewBox="0 0 48 48" fill="none" xmlns="http://www.w3.org/2000/svg">
<g clip-path="url(#clip0_12_12437)">
<path d="M44.2703 18.9104C45.1395 18.0632 45.4463 16.8197 45.0713 15.6654C44.6962 14.5111 43.7171 13.6856 42.516 13.5111L32.0132 11.985C31.807 11.9551 31.6288 11.8256 31.5365 11.6387L26.8396 2.12162C26.3025 1.03318 25.2148 0.357056 24.001 0.357056C22.7872 0.357056 21.6995 1.03318 21.1625 2.12162L16.4655 11.6387C16.3731 11.8256 16.195 11.9551 15.9888 11.9851L5.48614 13.5111C4.28502 13.6856 3.30598 14.5111 2.9308 15.6654C2.55561 16.8197 2.86255 18.0632 3.7318 18.9104L11.3316 26.3184C11.4808 26.4639 11.549 26.6734 11.5137 26.8788L9.71961 37.3391C9.51448 38.5354 9.99692 39.7217 10.9789 40.4351C11.9608 41.1487 13.2384 41.2409 14.3126 40.6762L23.7065 35.7376C23.891 35.6405 24.1112 35.6405 24.2958 35.7376L33.6897 40.6762C34.1569 40.9218 34.6625 41.0433 35.1657 41.0432C35.8191 41.0432 36.4685 40.8384 37.0232 40.435C38.0051 39.7215 38.4876 38.5352 38.2824 37.339L36.4883 26.8787C36.4532 26.6733 36.5212 26.4638 36.6704 26.3183L44.2703 18.9104ZM33.9926 27.307L35.7867 37.7674C35.8467 38.1175 35.6306 38.3171 35.5349 38.3866C35.4391 38.4559 35.1824 38.6 34.8681 38.4347L25.4742 33.496C25.013 33.2537 24.5072 33.1323 24.0012 33.1323C23.4952 33.1323 22.9893 33.2537 22.5282 33.4959L13.1344 38.4345C12.8199 38.5998 12.5633 38.4558 12.4676 38.3864C12.3719 38.3169 12.1557 38.1173 12.2158 37.7673L14.0099 27.307C14.186 26.28 13.8458 25.2326 13.0995 24.5052L5.49964 17.0972C5.2453 16.8491 5.30286 16.5606 5.33952 16.4481C5.37598 16.3355 5.49908 16.0682 5.85055 16.0172L16.3531 14.4911C17.3842 14.3413 18.2753 13.694 18.7366 12.7594L23.4335 3.24231C23.5908 2.92384 23.8829 2.88943 24.0013 2.88943C24.1195 2.88943 24.4116 2.92374 24.569 3.24231V3.2424L29.2659 12.7595C29.7271 13.6941 30.6181 14.3414 31.6492 14.4912L42.152 16.0173C42.5034 16.0683 42.6264 16.3356 42.663 16.4482C42.6995 16.5608 42.7572 16.8494 42.5028 17.0972L34.9029 24.5053C34.1567 25.2326 33.8165 26.28 33.9926 27.307Z" fill="#00BB98"/>
<path d="M38.7921 2.12106C38.2262 1.71006 37.4345 1.8355 37.0235 2.40118L35.6794 4.25106C35.2684 4.81675 35.3937 5.60865 35.9595 6.01965C36.1844 6.18287 36.4448 6.26153 36.7028 6.26153C37.0944 6.26153 37.4804 6.08049 37.7281 5.73962L39.0722 3.88975C39.4832 3.32396 39.3579 2.53206 38.7921 2.12106Z" fill="#00BB98"/>
<path d="M12.3144 4.24354L10.9703 2.39366C10.5594 1.82816 9.76756 1.70273 9.20169 2.11354C8.636 2.52454 8.51057 3.31644 8.92156 3.88213L10.2657 5.73201C10.5134 6.07316 10.8995 6.2541 11.2912 6.2541C11.5493 6.2541 11.8097 6.17544 12.0343 6.01213C12.6 5.60123 12.7255 4.80932 12.3144 4.24354Z" fill="#00BB98"/>
<path d="M4.64548 28.765C4.42939 28.1001 3.71511 27.736 3.04995 27.9521L0.875231 28.6588C0.210075 28.8749 -0.153769 29.5894 0.0623248 30.2544C0.236137 30.7896 0.732544 31.1297 1.26626 31.1297C1.39592 31.1297 1.52782 31.1095 1.65786 31.0673L3.83258 30.3606C4.49764 30.1445 4.86158 29.4302 4.64548 28.765Z" fill="#00BB98"/>
<path d="M24.0006 42.8235C23.3013 42.8235 22.7344 43.3904 22.7344 44.0897V46.3764C22.7344 47.0757 23.3013 47.6426 24.0006 47.6426C24.6998 47.6426 25.2668 47.0757 25.2668 46.3764V44.0897C25.2668 43.3903 24.6999 42.8235 24.0006 42.8235Z" fill="#00BB98"/>
<path d="M47.1256 28.6609L44.9508 27.9542C44.286 27.7383 43.5714 28.102 43.3553 28.7672C43.1392 29.4323 43.503 30.1466 44.1682 30.3627L46.3429 31.0694C46.473 31.1116 46.6048 31.1316 46.7344 31.1316C47.2683 31.1316 47.7647 30.7914 47.9385 30.2563C48.1546 29.5912 47.7906 28.877 47.1256 28.6609Z" fill="#00BB98"/>
</g>
<defs>
<clipPath id="clip0_12_12437">
<rect width="48" height="48" fill="white"/>
</clipPath>
</defs>
</svg>
