<svg width="48" height="48" viewBox="0 0 48 48" fill="none" xmlns="http://www.w3.org/2000/svg">
<path d="M18.3211 23.24C18.2611 23.24 18.2211 23.24 18.1611 23.24C18.0611 23.22 17.9211 23.22 17.8011 23.24C12.0011 23.06 7.62109 18.5 7.62109 12.88C7.62109 7.16 12.2811 2.5 18.0011 2.5C23.7211 2.5 28.3811 7.16 28.3811 12.88C28.3611 18.5 23.9611 23.06 18.3811 23.24C18.3611 23.24 18.3411 23.24 18.3211 23.24ZM18.0011 5.5C13.9411 5.5 10.6211 8.82 10.6211 12.88C10.6211 16.88 13.7411 20.1 17.7211 20.24C17.8411 20.22 18.1011 20.22 18.3611 20.24C22.2811 20.06 25.3611 16.84 25.3811 12.88C25.3811 8.82 22.0611 5.5 18.0011 5.5Z" fill="#00BB98"/>
<path d="M33.0807 23.5C33.0207 23.5 32.9607 23.5 32.9007 23.48C32.0807 23.56 31.2407 22.98 31.1607 22.16C31.0807 21.34 31.5807 20.6 32.4007 20.5C32.6407 20.48 32.9007 20.48 33.1207 20.48C36.0407 20.32 38.3207 17.92 38.3207 14.98C38.3207 11.94 35.8607 9.48 32.8207 9.48C32.0007 9.5 31.3207 8.82 31.3207 8C31.3207 7.18 32.0007 6.5 32.8207 6.5C37.5007 6.5 41.3207 10.32 41.3207 15C41.3207 19.6 37.7207 23.32 33.1407 23.5C33.1207 23.5 33.1007 23.5 33.0807 23.5Z" fill="#00BB98"/>
<path d="M18.3392 45.1C14.4192 45.1 10.4792 44.1 7.49922 42.1C4.71922 40.26 3.19922 37.74 3.19922 35C3.19922 32.26 4.71922 29.72 7.49922 27.86C13.4992 23.88 23.2192 23.88 29.1792 27.86C31.9392 29.7 33.4792 32.22 33.4792 34.96C33.4792 37.7 31.9592 40.24 29.1792 42.1C26.1792 44.1 22.2592 45.1 18.3392 45.1ZM9.15922 30.38C7.23922 31.66 6.19922 33.3 6.19922 35.02C6.19922 36.72 7.25922 38.36 9.15922 39.62C14.1392 42.96 22.5392 42.96 27.5192 39.62C29.4392 38.34 30.4792 36.7 30.4792 34.98C30.4792 33.28 29.4192 31.64 27.5192 30.38C22.5392 27.06 14.1392 27.06 9.15922 30.38Z" fill="#00BB98"/>
<path d="M36.6803 41.5C35.9803 41.5 35.3603 41.02 35.2203 40.3C35.0603 39.48 35.5803 38.7 36.3803 38.52C37.6403 38.26 38.8003 37.76 39.7003 37.06C40.8403 36.2 41.4603 35.12 41.4603 33.98C41.4603 32.84 40.8403 31.76 39.7203 30.92C38.8403 30.24 37.7403 29.76 36.4403 29.46C35.6403 29.28 35.1203 28.48 35.3003 27.66C35.4803 26.86 36.2803 26.34 37.1003 26.52C38.8203 26.9 40.3203 27.58 41.5403 28.52C43.4003 29.92 44.4603 31.9 44.4603 33.98C44.4603 36.06 43.3803 38.04 41.5203 39.46C40.2803 40.42 38.7203 41.12 37.0003 41.46C36.8803 41.5 36.7803 41.5 36.6803 41.5Z" fill="#00BB98"/>
</svg>
