<svg width="23" height="21" viewBox="0 0 23 21" fill="none" xmlns="http://www.w3.org/2000/svg">
<path d="M14.2734 5.92969L12.5547 5.69531L11.8125 4.17188C11.6953 3.89844 11.3047 3.89844 11.1484 4.17188L10.4062 5.69531L8.6875 5.92969C8.375 5.96875 8.25781 6.35938 8.49219 6.59375L9.70312 7.76562L9.42969 9.44531C9.39062 9.75781 9.70312 9.99219 9.97656 9.83594L11.5 9.05469L12.9844 9.83594C13.2578 9.99219 13.5703 9.75781 13.5312 9.44531L13.2578 7.76562L14.4688 6.59375C14.7031 6.35938 14.5859 5.96875 14.2734 5.92969ZM17.75 3V1.125C17.75 0.8125 17.4375 0.5 17.125 0.5H5.875C5.52344 0.5 5.25 0.8125 5.25 1.125V3H0.875C0.523438 3 0.25 3.3125 0.25 3.625V6.00781C0.25 8.39062 2.90625 10.8906 6.46094 11.5938C7.55469 13.8594 9.11719 15.0312 10.5625 15.3828V18.625H8.0625C7.16406 18.625 6.5 19.3281 6.5 20.1875C6.5 20.3828 6.61719 20.5 6.8125 20.5H16.1875C16.3438 20.5 16.5 20.3828 16.5 20.1875C16.5 19.3281 15.7969 18.625 14.9375 18.625H12.4375V15.3828C13.8438 15.0312 15.4453 13.8594 16.5 11.5938C20.0547 10.9297 22.75 8.39062 22.75 6.00781V3.625C22.75 3.3125 22.4375 3 22.125 3H17.75ZM2.125 6.00781V4.875H5.25C5.25 6.4375 5.32812 7.88281 5.71875 9.44531C3.57031 8.70312 2.125 7.14062 2.125 6.00781ZM11.5 13.625C9.42969 13.625 7.125 10.5781 7.125 5.1875V2.375H15.875V5.1875C15.875 10.6953 13.4922 13.625 11.5 13.625ZM20.875 6.00781C20.875 7.14062 19.3906 8.70312 17.2422 9.44531C17.6328 7.88281 17.75 6.4375 17.75 4.875H20.875V6.00781Z" fill="white"/>
</svg>
