<svg width="20" height="19" viewBox="0 0 20 19" fill="none" xmlns="http://www.w3.org/2000/svg">
<path d="M10 15.4375C12.5781 15.4375 14.6875 13.3672 14.6875 10.75C14.6875 8.17188 12.5781 6.0625 10 6.0625C7.38281 6.0625 5.3125 8.17188 5.3125 10.75C5.3125 13.3672 7.38281 15.4375 10 15.4375ZM10 7.9375C11.5234 7.9375 12.8125 9.22656 12.8125 10.75C12.8125 12.3125 11.5234 13.5625 10 13.5625C8.4375 13.5625 7.1875 12.3125 7.1875 10.75C7.1875 9.22656 8.4375 7.9375 10 7.9375ZM9.0625 10.75C9.0625 10.2422 9.45312 9.8125 10 9.8125C10.3125 9.8125 10.625 9.53906 10.625 9.1875C10.625 8.875 10.3125 8.5625 10 8.5625C8.78906 8.5625 7.8125 9.57812 7.8125 10.75C7.8125 11.1016 8.08594 11.375 8.4375 11.375C8.75 11.375 9.0625 11.1016 9.0625 10.75ZM13.3594 5.08594H18.125V16.3359H1.875V5.08594H6.60156L7.53906 2.58594H12.4219L13.3594 5.08594ZM12.6562 0.710938H7.53906C6.75781 0.710938 6.05469 1.21875 5.78125 1.96094L5.3125 3.21094H1.875C0.820312 3.21094 0 4.07031 0 5.08594V16.3359C0 17.3906 0.820312 18.2109 1.875 18.2109H18.125C19.1406 18.2109 20 17.3906 20 16.3359V5.08594C20 4.07031 19.1406 3.21094 18.125 3.21094H14.6875L14.1016 1.72656C13.8672 1.14062 13.3203 0.710938 12.6562 0.710938Z" fill="white"/>
</svg>
