<svg width="25" height="21" viewBox="0 0 25 21" fill="none" xmlns="http://www.w3.org/2000/svg">
<path d="M12.5 9.5625C11.9531 9.5625 11.5625 9.99219 11.5625 10.5C11.5625 11.0469 11.9531 11.4375 12.5 11.4375C13.0078 11.4375 13.4375 11.0469 13.4375 10.5C13.4375 9.99219 13.0078 9.5625 12.5 9.5625ZM5.625 8.3125C5.07812 8.3125 4.6875 8.74219 4.6875 9.25C4.6875 9.79688 5.07812 10.1875 5.625 10.1875C6.13281 10.1875 6.5625 9.79688 6.5625 9.25C6.5625 8.74219 6.13281 8.3125 5.625 8.3125ZM18.2031 4.79688C17.4609 2.29688 15.1562 0.5 12.5 0.5C9.80469 0.5 7.5 2.29688 6.75781 4.79688C2.92969 5.5 0 7.02344 0 9.25C0 12.5703 6.25 14.2891 12.5 14.2891C18.7109 14.2891 25 12.5703 25 9.25C25 7.02344 22.0312 5.5 18.2031 4.79688ZM12.5 2.375C14.6484 2.375 16.4062 4.05469 16.5625 6.20312C15.3516 6.55469 13.9453 6.75 12.5 6.75C11.0156 6.75 9.60938 6.55469 8.39844 6.20312C8.55469 4.05469 10.3125 2.41406 12.4609 2.41406C12.4609 2.41406 12.4609 2.375 12.5 2.375ZM12.5 12.4141C5.97656 12.4141 1.875 10.5391 1.875 9.25C1.875 8.42969 3.59375 7.375 6.60156 6.71094C6.75781 7.33594 7.22656 7.80469 7.85156 8C9.29688 8.42969 10.8594 8.625 12.5 8.625C14.1016 8.625 15.6641 8.42969 17.1094 8C17.7344 7.80469 18.2031 7.33594 18.3594 6.71094C21.3672 7.375 23.125 8.42969 23.125 9.25C23.125 10.5391 18.9844 12.4141 12.5 12.4141ZM1.28906 19.3281C1.25 19.4062 1.25 19.5234 1.25 19.6016C1.25 19.875 1.36719 20.0703 1.5625 20.1875L2.14844 20.4609C2.22656 20.5 2.30469 20.5 2.42188 20.5C2.65625 20.5 2.85156 20.3828 2.96875 20.1875L5.66406 14.7969C5 14.6406 4.41406 14.4844 3.82812 14.2891L1.28906 19.3281ZM21.1328 14.2891C20.5469 14.4844 19.9609 14.6406 19.2969 14.7969L21.9922 20.1875C22.0703 20.3828 22.3047 20.5391 22.5391 20.5391C22.6562 20.5391 22.7344 20.5 22.8125 20.4609L23.3984 20.1875C23.5938 20.0703 23.75 19.875 23.75 19.6016C23.75 19.5234 23.7109 19.4062 23.6719 19.3281L21.1328 14.2891ZM19.375 8.3125C18.8281 8.3125 18.4375 8.74219 18.4375 9.25C18.4375 9.79688 18.8281 10.1875 19.375 10.1875C19.8828 10.1875 20.3125 9.79688 20.3125 9.25C20.3125 8.74219 19.8828 8.3125 19.375 8.3125Z" fill="white"/>
</svg>
