<svg width="20" height="19" viewBox="0 0 20 19" fill="none" xmlns="http://www.w3.org/2000/svg">
<path d="M18.125 5.125H17.0703C17.3438 4.65625 17.5 4.14844 17.5 3.5625C17.5 1.6875 15.9375 0.125 14.0625 0.125C12.4219 0.125 11.3672 0.984375 10.0391 2.82031C8.67188 0.984375 7.61719 0.125 6.01562 0.125C4.10156 0.125 2.57812 1.6875 2.57812 3.5625C2.57812 4.14844 2.69531 4.65625 2.96875 5.125H1.875C0.820312 5.125 0 5.98438 0 7V12C0 12.3516 0.273438 12.625 0.625 12.625H1.25V16.8438C1.25 17.9766 2.14844 18.875 3.28125 18.875H16.6797C17.8125 18.875 18.75 17.9766 18.75 16.8438V12.625H19.375C19.6875 12.625 20 12.3516 20 12V7C20 5.98438 19.1406 5.125 18.125 5.125ZM9.0625 17H3.28125C3.20312 17 3.125 16.9219 3.125 16.8438V12.625H7.5V10.75H1.875V7H9.0625V17ZM5.97656 5.125C5.11719 5.125 4.41406 4.46094 4.41406 3.5625C4.41406 2.70312 5.11719 2 5.97656 2C6.83594 2 7.46094 2.3125 9.29688 5.00781L9.375 5.125H5.97656ZM10.7422 5.00781C12.5781 2.3125 13.2031 2 14.0625 2C14.9219 2 15.625 2.70312 15.625 3.5625C15.625 4.46094 14.9219 5.125 14.0625 5.125H10.6641L10.7422 5.00781ZM18.125 10.75H12.5V12.625H16.875V16.8438C16.875 16.9219 16.7969 17 16.6797 17H10.9375V7H18.125V10.75Z" fill="white"/>
</svg>
