<svg width="32" height="32" viewBox="0 0 32 32" fill="none" xmlns="http://www.w3.org/2000/svg">
<path d="M24.0001 10.5466C23.9601 10.5466 23.9334 10.5466 23.8934 10.5466H23.8268C21.3068 10.4666 19.4268 8.51993 19.4268 6.11993C19.4268 3.6666 21.4268 1.67993 23.8668 1.67993C26.3068 1.67993 28.3068 3.67993 28.3068 6.11993C28.2934 8.53327 26.4134 10.4799 24.0134 10.5599C24.0134 10.5466 24.0134 10.5466 24.0001 10.5466ZM23.8668 3.66661C22.5201 3.66661 21.4268 4.75994 21.4268 6.10661C21.4268 7.42661 22.4534 8.49328 23.7734 8.54661C23.7868 8.53328 23.8934 8.53328 24.0134 8.54661C25.3068 8.47994 26.3068 7.41327 26.3201 6.10661C26.3201 4.75994 25.2268 3.66661 23.8668 3.66661Z" fill="#FD4C5C"/>
<path d="M24.013 20.3735C23.493 20.3735 22.973 20.3334 22.453 20.2401C21.9063 20.1468 21.5463 19.6268 21.6397 19.0801C21.733 18.5334 22.253 18.1734 22.7997 18.2668C24.4397 18.5468 26.173 18.2401 27.333 17.4668C27.9597 17.0535 28.293 16.5334 28.293 16.0134C28.293 15.4934 27.9463 14.9868 27.333 14.5734C26.173 13.8001 24.413 13.4934 22.7597 13.7868C22.213 13.8934 21.693 13.5201 21.5997 12.9734C21.5063 12.4268 21.8663 11.9068 22.413 11.8135C24.5863 11.4268 26.8397 11.8401 28.4397 12.9068C29.613 13.6934 30.293 14.8134 30.293 16.0134C30.293 17.2001 29.6263 18.3335 28.4397 19.1335C27.2263 19.9335 25.653 20.3735 24.013 20.3735Z" fill="#FD4C5C"/>
<path d="M7.95965 10.5468C7.94632 10.5468 7.93298 10.5468 7.93298 10.5468C5.53298 10.4668 3.65298 8.52008 3.63965 6.12008C3.63965 3.66674 5.63965 1.66675 8.07965 1.66675C10.5197 1.66675 12.5196 3.66675 12.5196 6.10675C12.5196 8.52008 10.6396 10.4668 8.23965 10.5468L7.95965 9.54675L8.05298 10.5468C8.02632 10.5468 7.98632 10.5468 7.95965 10.5468ZM8.09298 8.54675C8.17298 8.54675 8.23965 8.54675 8.31965 8.56008C9.50632 8.50675 10.5463 7.44008 10.5463 6.12008C10.5463 4.77341 9.45298 3.68007 8.10632 3.68007C6.75965 3.68007 5.66632 4.77341 5.66632 6.12008C5.66632 7.42674 6.67965 8.48008 7.97298 8.56008C7.98632 8.54675 8.03965 8.54675 8.09298 8.54675Z" fill="#FD4C5C"/>
<path d="M7.94699 20.3735C6.30699 20.3735 4.73366 19.9335 3.52032 19.1335C2.34699 18.3468 1.66699 17.2134 1.66699 16.0134C1.66699 14.8268 2.34699 13.6934 3.52032 12.9068C5.12032 11.8401 7.37366 11.4268 9.54699 11.8135C10.0937 11.9068 10.4537 12.4268 10.3603 12.9734C10.267 13.5201 9.74699 13.8934 9.20033 13.7868C7.54699 13.4934 5.80033 13.8001 4.62699 14.5734C4.00033 14.9868 3.66699 15.4934 3.66699 16.0134C3.66699 16.5334 4.01366 17.0535 4.62699 17.4668C5.78699 18.2401 7.52032 18.5468 9.16032 18.2668C9.70699 18.1734 10.227 18.5468 10.3203 19.0801C10.4137 19.6268 10.0537 20.1468 9.50699 20.2401C8.98699 20.3334 8.46699 20.3735 7.94699 20.3735Z" fill="#FD4C5C"/>
<path d="M16.0001 20.5066C15.9601 20.5066 15.9334 20.5066 15.8934 20.5066H15.8268C13.3068 20.4266 11.4268 18.4799 11.4268 16.0799C11.4268 13.6266 13.4268 11.6399 15.8668 11.6399C18.3068 11.6399 20.3068 13.6399 20.3068 16.0799C20.2934 18.4932 18.4134 20.4399 16.0134 20.5199C16.0134 20.5066 16.0134 20.5066 16.0001 20.5066ZM15.8668 13.6266C14.5201 13.6266 13.4268 14.7199 13.4268 16.0666C13.4268 17.3866 14.4534 18.4532 15.7734 18.5066C15.7868 18.4932 15.8934 18.4932 16.0134 18.5066C17.3068 18.4399 18.3068 17.3732 18.3201 16.0666C18.3201 14.7332 17.2268 13.6266 15.8668 13.6266Z" fill="#FD4C5C"/>
<path d="M15.9994 30.3467C14.3994 30.3467 12.7994 29.9334 11.5594 29.0934C10.3861 28.3067 9.70605 27.1867 9.70605 25.9867C9.70605 24.8001 10.3727 23.6534 11.5594 22.8667C14.0527 21.2134 17.9594 21.2134 20.4394 22.8667C21.6127 23.6534 22.2927 24.7734 22.2927 25.9734C22.2927 27.16 21.6261 28.3067 20.4394 29.0934C19.1994 29.9201 17.5994 30.3467 15.9994 30.3467ZM12.6661 24.5467C12.0394 24.9601 11.7061 25.4801 11.7061 26.0001C11.7061 26.5201 12.0527 27.0267 12.6661 27.4401C14.4661 28.6534 17.5194 28.6534 19.3194 27.4401C19.9461 27.0267 20.2794 26.5067 20.2794 25.9867C20.2794 25.4667 19.9327 24.9601 19.3194 24.5467C17.5327 23.3334 14.4794 23.3467 12.6661 24.5467Z" fill="#FD4C5C"/>
</svg>
