<svg width="26" height="29" viewBox="0 0 26 29" fill="none" xmlns="http://www.w3.org/2000/svg">
<path d="M12.0315 28.089L12.8107 26.3285C12.9129 26.3636 13.0232 26.3784 13.137 26.3621C13.5251 26.3071 13.7958 25.9457 13.7412 25.5553C13.7093 25.3258 13.5701 25.1395 13.3834 25.0341L14.1743 23.2476C14.275 23.2812 14.3837 23.2954 14.4961 23.2797C14.8842 23.2247 15.1549 22.8633 15.1002 22.4729C15.0683 22.2449 14.9312 22.0601 14.747 21.9543L17.1423 16.5428L22.7206 16.5774C25.4944 16.386 25.9047 14.9975 25.9644 14.5277H25.9998C25.9998 14.5277 26.0793 12.5523 22.7318 12.3442L17.1539 12.4165L14.7217 7.0197C14.9251 6.9118 15.0729 6.70668 15.0977 6.45931C15.1366 6.06689 14.8523 5.71671 14.4622 5.67752C14.3478 5.66581 14.2385 5.68515 14.1378 5.72434L13.3313 3.93527C13.4867 3.81973 13.596 3.64311 13.6167 3.43443C13.6557 3.042 13.3713 2.69182 12.9812 2.65263C12.9048 2.645 12.8314 2.65263 12.7606 2.66841L11.9662 0.905294C11.9662 0.905294 11.4228 -0.708182 10.7139 0.372898L12.4464 12.4623L3.37129 13.6965L1.51944 9.17169C1.51944 9.17169 0.713424 8.63725 1.07823 10.2512L1.49667 13.7057C1.49667 13.7057 -0.0662776 13.4889 0.027833 14.4763H0.323318L0.325851 14.5964L0.00354742 14.5995C-0.0839856 15.5874 1.47744 15.3599 1.47744 15.3599L1.08228 18.8174C0.728095 20.4339 1.53056 19.8939 1.53056 19.8939L3.35206 15.3568L12.4353 16.5295L10.7843 28.6306C11.5002 29.7066 12.033 28.0896 12.033 28.0896L12.0315 28.089ZM11.1506 14.5018L11.2968 14.4987H11.4517L11.1506 14.5018Z" fill="#FD4C5C"/>
</svg>
