<svg width="54" height="61" viewBox="0 0 54 61" fill="none" xmlns="http://www.w3.org/2000/svg">
<path d="M32.6767 36.8044L51.4094 46.5565C51.9604 46.832 52.6216 46.7218 53.0072 46.281C53.3929 45.8402 53.448 45.1791 53.1174 44.6832L48.7648 38.292C48.875 38.1267 48.9852 38.0165 49.0403 37.8512L49.9769 36.0882C50.3075 35.427 50.3626 34.7107 50.1422 33.9945C49.9218 33.2782 49.426 32.7273 48.7648 32.3967C48.1037 32.0661 47.3874 32.011 46.6712 32.2314C46.0651 32.3967 45.5692 32.7824 45.2386 33.2782L43.2552 30.303L44.0265 28.8154C44.3571 28.1543 44.4122 27.438 44.1918 26.7218C43.9714 26.0055 43.4756 25.4545 42.8144 25.124C42.1532 24.7934 41.437 24.7383 40.7207 24.9587C40.3902 25.0689 40.1147 25.2342 39.8392 25.3994L39.2331 24.573C44.302 14.1047 47.6078 2.20386 43.9163 0.275481C40.1698 -1.65289 31.7951 7.7686 26.0651 18.0165H24.6326C24.6877 17.6309 24.6326 17.2452 24.5224 16.8595C24.302 16.1432 23.8061 15.5923 23.145 15.2617C22.4838 14.9311 21.7676 14.876 21.0513 15.0964C20.3351 15.3168 19.7841 15.8127 19.4535 16.4738L18.572 18.1818L15.156 18.2369C15.7621 16.9146 15.2662 15.3168 13.9439 14.6005C13.2827 14.27 12.5665 14.2149 11.8502 14.4353C11.134 14.6556 10.583 15.1515 10.2524 15.8127L9.31578 17.4656C9.20559 17.6859 9.15049 17.9614 9.0954 18.1818L1.82267 18.2369C1.21661 18.2369 0.665644 18.6777 0.555452 19.2287C0.390162 19.8347 0.665644 20.4408 1.21661 20.7163L19.9494 30.4683C18.2414 34.6005 17.5802 38.6226 17.0293 41.8733C16.864 42.9752 16.6436 44.0771 16.4783 45.0138L6.67115 48.0992C6.01 48.3196 5.62432 48.9256 5.73451 49.5868C5.84471 50.2479 6.45077 50.6887 7.11193 50.6887C7.22212 50.6887 16.4783 50.303 23.9714 59.5592C24.2469 59.8898 24.6326 60.0551 25.0183 60.0551C25.2386 60.0551 25.459 60 25.6243 59.8898C26.1753 59.6143 26.4508 58.9532 26.2855 58.3471L23.2001 48.5399C23.5307 48.1543 23.9163 47.7686 24.302 47.3278C26.6712 44.6832 29.9218 41.2121 32.6767 36.8044ZM12.897 48.8705L17.9659 47.2727C18.4067 47.1074 18.7373 46.7769 18.8475 46.3361C19.1229 45.124 19.3433 43.7466 19.6188 42.3141C20.2249 38.7328 20.886 34.6556 22.8144 30.4132C23.0899 29.7521 22.8695 29.0358 22.2083 28.7052L7.11193 20.8264L9.97694 20.7713C10.1422 20.9366 10.3075 21.0468 10.5279 21.157C10.9136 21.3774 11.3543 21.4876 11.7951 21.4876C12.0706 21.4876 12.3461 21.4325 12.6216 21.3774C13.0072 21.2672 13.3378 21.0468 13.6684 20.7713L18.6271 20.7163C18.9026 21.2121 19.2882 21.6529 19.7841 21.9284C20.1698 22.1488 20.6105 22.259 21.0513 22.259C21.3268 22.259 21.6023 22.2039 21.8778 22.1488C22.594 21.9284 23.145 21.4325 23.4756 20.7713L23.5307 20.7163L26.9466 20.6612C27.4425 20.6612 27.8833 20.3857 28.1037 20C34.3847 8.42975 41.0513 2.75482 42.7593 2.64463C43.4756 3.96694 42.7042 11.7355 36.6436 24.0771C36.4232 24.5179 36.4783 25.0138 36.7538 25.3994L38.4067 27.8237L38.1863 28.0992C37.8557 28.7603 37.8006 29.4766 38.021 30.1928C38.2414 30.9091 38.7373 31.4601 39.3984 31.7906C39.7841 32.011 40.2249 32.1212 40.6656 32.1212C40.886 32.1212 41.0513 32.0661 41.2717 32.0661L43.9163 35.8678C43.8061 36.3636 43.8061 36.8595 43.9714 37.3554C44.1918 38.0716 44.6877 38.6226 45.3488 38.9532C45.6243 39.1185 45.9549 39.1736 46.2855 39.2286L47.9935 41.708L32.7869 33.8843C32.1808 33.5537 31.4094 33.7741 31.0238 34.3802C28.269 39.0083 24.9632 42.6446 22.3185 45.5096C21.7125 46.1157 21.2166 46.7218 20.7207 47.2727C20.3902 47.6033 20.3351 48.0992 20.4453 48.5399L22.0982 53.7741C18.8475 51.1295 15.5968 49.6419 12.897 48.8705ZM11.2442 18.4022L12.1808 16.584C12.291 16.3636 12.5114 16.2534 12.7318 16.2534C12.842 16.2534 12.9521 16.2534 13.0072 16.3085C13.3378 16.4738 13.448 16.8595 13.2827 17.1901L12.3461 18.9532C12.291 19.1185 12.1257 19.2286 11.9604 19.2837C11.7951 19.3388 11.6298 19.3388 11.4645 19.2287C11.2993 19.1736 11.1891 19.0083 11.134 18.843C11.134 18.7328 11.134 18.5675 11.2442 18.4022ZM21.3819 17.3554C21.4921 17.135 21.7125 17.0248 21.9329 17.0248C22.0431 17.0248 22.1532 17.0248 22.2083 17.0799C22.3736 17.135 22.4838 17.3003 22.5389 17.4656C22.594 17.6309 22.594 17.7961 22.4838 17.9614L21.5472 19.7245C21.4921 19.8898 21.3268 20 21.1615 20.0551C20.9962 20.1102 20.8309 20.1102 20.6656 20C20.3351 19.8347 20.2249 19.449 20.3902 19.1185L21.3819 17.3554ZM41.3819 26.9421C41.437 26.9421 41.4921 26.8871 41.6023 26.8871C41.7125 26.8871 41.8227 26.8871 41.8778 26.9421C42.0431 26.9972 42.1532 27.1625 42.2083 27.3278C42.2634 27.4931 42.2634 27.6584 42.1532 27.8237L41.2166 29.5868C41.0513 29.9174 40.6656 30.0275 40.3351 29.8623C40.0045 29.697 39.8943 29.3113 40.0596 28.9807L40.9962 27.2176C41.1064 27.1074 41.2166 26.9972 41.3819 26.9421ZM46.01 36.1983L46.9466 34.4353C47.0017 34.27 47.167 34.1598 47.3323 34.1047C47.4976 34.0496 47.6629 34.0496 47.8282 34.1598C47.9935 34.2149 48.1037 34.3802 48.1588 34.5455C48.2139 34.7107 48.2139 34.876 48.1037 35.0413L47.167 36.8595C47.1119 37.0248 46.9466 37.135 46.7813 37.1901C46.6161 37.2452 46.4508 37.2452 46.2855 37.135C46.1202 37.0799 46.01 36.9146 45.9549 36.7493C45.8998 36.5289 45.8998 36.3636 46.01 36.1983Z" fill="white"/>
</svg>
