<svg width="50" height="38" viewBox="0 0 50 38" fill="none" xmlns="http://www.w3.org/2000/svg">
<path d="M11.3642 15.171C10.8084 15.171 10.275 15.256 9.74406 15.3335C9.91605 14.7536 10.093 14.1638 10.3772 13.6339C10.6613 12.8641 11.105 12.1968 11.5462 11.5245C11.9151 10.7972 12.5657 10.3048 13.0442 9.68247C13.5453 9.07763 14.2282 8.67524 14.7691 8.17287C15.3 7.64801 15.9955 7.38558 16.5488 7.01568C17.1271 6.68327 17.6306 6.31587 18.169 6.14092L19.5125 5.58607L20.694 5.0937L19.4851 0.25L17.997 0.609902C17.5209 0.72987 16.9401 0.869833 16.2796 1.03729C15.6041 1.16225 14.8838 1.50466 14.0812 1.81708C13.2885 2.17198 12.3712 2.41192 11.5188 2.98177C10.6613 3.52662 9.67178 3.9815 8.79938 4.7113C7.95439 5.4636 6.93493 6.11593 6.18217 7.07317C5.35962 7.96793 4.54703 8.90768 3.91641 9.97739C3.18609 10.9971 2.69006 12.1168 2.16662 13.224C1.69303 14.3312 1.31166 15.4634 1.00009 16.5631C0.40935 18.7675 0.145136 20.862 0.0429403 22.654C-0.0418074 24.4485 0.00804419 25.9406 0.112733 27.0203C0.150121 27.5302 0.219914 28.025 0.269765 28.3675L0.33208 28.7873L0.396887 28.7723C0.84022 30.8489 1.86079 32.7571 3.34053 34.2763C4.82028 35.7955 6.69873 36.8637 8.7586 37.3571C10.8185 37.8506 12.9756 37.7492 14.9804 37.0647C16.9852 36.3802 18.7558 35.1406 20.0873 33.4893C21.4188 31.8379 22.2569 29.8424 22.5046 27.7334C22.7523 25.6244 22.3995 23.4882 21.4869 21.5718C20.5744 19.6555 19.1394 18.0374 17.3481 16.9047C15.5567 15.7719 13.4821 15.1709 11.3642 15.171V15.171ZM38.7826 15.171C38.2268 15.171 37.6934 15.256 37.1625 15.3335C37.3344 14.7536 37.5114 14.1638 37.7956 13.6339C38.0797 12.8641 38.5234 12.1968 38.9646 11.5245C39.3335 10.7972 39.9841 10.3048 40.4626 9.68247C40.9636 9.07763 41.6466 8.67524 42.1875 8.17287C42.7184 7.64801 43.4138 7.38558 43.9672 7.01568C44.5455 6.68327 45.049 6.31587 45.5874 6.14092L46.9309 5.58607L48.1124 5.0937L46.9035 0.25L45.4154 0.609902C44.9393 0.72987 44.3585 0.869833 43.698 1.03729C43.0225 1.16225 42.3022 1.50466 41.4995 1.81708C40.7094 2.17448 39.7896 2.41192 38.9372 2.98427C38.0797 3.52912 37.0902 3.984 36.2178 4.7138C35.3728 5.4661 34.3533 6.11843 33.6006 7.07317C32.778 7.96793 31.9654 8.90768 31.3348 9.97739C30.6045 10.9971 30.1085 12.1168 29.585 13.224C29.1114 14.3312 28.7301 15.4634 28.4185 16.5631C27.8277 18.7675 27.5635 20.862 27.4613 22.654C27.3766 24.4485 27.4264 25.9406 27.5311 27.0203C27.5685 27.5302 27.6383 28.025 27.6882 28.3675L27.7505 28.7873L27.8153 28.7723C28.2586 30.8489 29.2792 32.7571 30.7589 34.2763C32.2387 35.7955 34.1171 36.8637 36.177 37.3571C38.2368 37.8506 40.3939 37.7492 42.3988 37.0647C44.4036 36.3802 46.1741 35.1406 47.5057 33.4893C48.8372 31.8379 49.6753 29.8424 49.923 27.7334C50.1707 25.6244 49.8179 23.4882 48.9053 21.5718C47.9928 19.6555 46.5578 18.0374 44.7665 16.9047C42.9751 15.7719 40.9005 15.1709 38.7826 15.171V15.171Z" fill="#FD4C5C"/>
</svg>
