<svg width="16" height="24" viewBox="0 0 16 24" fill="none" xmlns="http://www.w3.org/2000/svg">
<g clip-path="url(#clip0_1084_1962)">
<path d="M7.73418 5.78041L4.10918 9.46167C3.9623 9.60854 3.9623 9.84604 4.10918 9.99292L4.33105 10.2148C4.47793 10.3617 4.71543 10.3617 4.8623 10.2148L7.9998 7.01791L11.1373 10.2117C11.2842 10.3585 11.5217 10.3585 11.6686 10.2117L11.8904 9.98979C12.0373 9.84292 12.0373 9.60542 11.8904 9.45854L8.26543 5.77728C8.11855 5.63353 7.88105 5.63353 7.73418 5.78041Z" fill="black"/>
</g>
<g clip-path="url(#clip1_1084_1962)">
<path d="M7.73418 18.2145L4.10918 14.5332C3.9623 14.3863 3.9623 14.1488 4.10918 14.002L4.33105 13.7801C4.47793 13.6332 4.71543 13.6332 4.8623 13.7801L7.9998 16.977L11.1373 13.7832C11.2842 13.6363 11.5217 13.6363 11.6686 13.7832L11.8904 14.0051C12.0373 14.152 12.0373 14.3895 11.8904 14.5363L8.26543 18.2176C8.11855 18.3613 7.88105 18.3613 7.73418 18.2145Z" fill="black"/>
</g>
<defs>
<clipPath id="clip0_1084_1962">
<rect width="8" height="16" fill="white" transform="translate(4)"/>
</clipPath>
<clipPath id="clip1_1084_1962">
<rect width="8" height="16" fill="white" transform="translate(4 8)"/>
</clipPath>
</defs>
</svg>
