<svg width="24" height="24" viewBox="0 0 24 24" fill="none" xmlns="http://www.w3.org/2000/svg">
<path d="M0 3.75V20.25C0 21.4927 1.00734 22.5 2.25 22.5H21.75C22.9927 22.5 24 21.4927 24 20.25V3.75C24 2.50734 22.9927 1.5 21.75 1.5H2.25C1.00734 1.5 0 2.50734 0 3.75ZM22.5 3.75V8.00002H9V3H21.75C22.1642 3 22.5 3.33577 22.5 3.75ZM22.5 14.5H9V9.50002H22.5V14.5ZM1.5 9.50002H7.5V14.5H1.5V9.50002ZM7.5 3V8.00002H1.5V3.75C1.5 3.33577 1.83577 3 2.25 3H7.5ZM1.5 20.25V16H7.5V21H2.25C1.83577 21 1.5 20.6642 1.5 20.25ZM9 21V16H22.5V20.25C22.5 20.6642 22.1642 21 21.75 21H9Z" fill="#00BB98"/>
</svg>
