<svg width="50" height="60" viewBox="0 0 50 60" fill="none" xmlns="http://www.w3.org/2000/svg">
<path d="M15.827 44.9513C17.7081 44.9513 19.5892 44.9513 21.5351 44.9513C21.8594 44.9513 22.2486 44.6919 22.3135 44.3675C22.5081 43.0703 22.7675 41.773 23.0919 40.4757C23.2216 39.9567 22.8324 39.5027 22.3135 39.5027C20.4973 39.5027 18.7459 39.5027 16.9297 39.5027C16.6054 39.5027 16.281 39.7621 16.1513 40.0865C15.7621 41.3838 15.3729 42.6811 15.0486 43.9784C14.7892 44.9513 16.3459 45.3405 16.5405 44.3675C16.8648 43.0703 17.1892 41.773 17.6432 40.4757C17.3837 40.6703 17.1243 40.8648 16.8648 41.0594C18.681 41.0594 20.4324 41.0594 22.2486 41.0594C21.9892 40.7351 21.7297 40.4108 21.4702 40.0865C21.1459 41.3838 20.8865 42.6811 20.6919 43.9784C20.9513 43.7838 21.2108 43.5892 21.4702 43.3946C19.5892 43.3946 17.7081 43.3946 15.7621 43.3946C14.854 43.3946 14.854 44.9513 15.827 44.9513Z" fill="#00BB98"/>
<path d="M22.1836 31.2648C21.2106 31.3297 20.3673 30.9405 19.3295 30.9405C18.2268 30.9405 17.9673 30.9405 17.2538 31.7837C17.0592 32.0432 16.9295 32.4324 17.1241 32.7567C17.3836 33.1459 18.8754 34.9621 18.7457 35.2216C18.4863 35.7405 18.7457 36.3891 19.3944 36.3891C20.4971 36.3891 21.5998 36.3891 22.7673 36.3891C23.0268 36.3891 23.3511 36.2594 23.416 36C24.0646 34.6378 24.7781 33.3405 25.6214 32.1081C25.9457 31.5891 25.5565 30.9405 24.9727 30.9405C23.8052 30.9405 23.0917 31.0054 21.989 31.3297C21.016 31.5891 21.47 33.1459 22.3781 32.8216C23.0268 32.627 23.0268 32.4972 23.6754 32.4972C24.0646 32.4972 24.5187 32.4972 24.9079 32.4972C24.7133 32.1081 24.4538 31.7189 24.2592 31.3297C23.4809 32.627 22.7673 33.9243 22.0538 35.2216C22.2484 35.0918 22.5079 34.9621 22.7025 34.8324C21.5998 34.8324 20.4971 34.8324 19.3295 34.8324C19.5241 35.2216 19.7836 35.6108 19.9781 36C20.6268 34.5081 19.1349 33.1459 18.3565 31.9135C18.2917 32.2378 18.2917 32.5621 18.2268 32.8864C18.616 32.3675 18.0322 32.5621 18.6808 32.4972C19.07 32.4324 19.5241 32.4324 19.8484 32.4972C20.4322 32.5621 21.1457 32.8864 22.0538 32.8216C23.1565 32.7567 23.1565 31.2 22.1836 31.2648Z" fill="#00BB98"/>
<path d="M14.7245 53.5784C16.865 53.5784 19.0055 53.5784 21.1461 53.5784C21.5353 53.5784 21.9244 53.1892 21.9244 52.8C21.8596 51.5027 21.8596 50.2054 21.9244 48.9081C21.9244 48.5189 21.5353 48.1297 21.1461 48.1297C19.1353 48.1297 17.1893 48.1297 15.1785 48.1297C14.8542 48.1297 14.465 48.3892 14.4001 48.7135C14.2055 50.0756 14.0109 51.4378 13.8812 52.8C13.7515 53.7729 15.3082 53.7729 15.438 52.8C15.5677 51.5675 15.6974 50.3351 15.892 49.1027C15.6326 49.2973 15.3731 49.4919 15.1136 49.6865C17.1244 49.6865 19.0704 49.6865 21.0812 49.6865C20.8217 49.427 20.5623 49.1675 20.3028 48.9081C20.238 50.2054 20.238 51.5027 20.3028 52.8C20.5623 52.5405 20.8217 52.2811 21.0812 52.0216C18.9407 52.0216 16.8001 52.0216 14.6596 52.0216C13.6866 52.0216 13.6866 53.5784 14.7245 53.5784Z" fill="#00BB98"/>
<path d="M0.908108 6.81082C1.88108 6.81082 2.72432 6.87569 3.63243 6.94055H3.6973C3.6973 6.94055 3.6973 6.94055 3.76216 6.94055C3.95676 6.94055 4.21622 6.94055 4.41081 7.00542L3.04865 8.04325C2.65946 8.36758 2.59459 8.95136 2.85405 9.34055C3.04865 9.60001 3.30811 9.72974 3.56757 9.72974C3.76216 9.72974 3.95676 9.66488 4.15135 9.53514L6.87568 7.3946C7.71892 7.5892 8.56216 7.78379 9.34054 7.97839L6.29189 9.72974C5.83784 9.9892 5.70811 10.573 5.96757 11.027C6.16216 11.3514 6.48649 11.4811 6.74595 11.4811C6.87568 11.4811 7.07027 11.4162 7.2 11.3514L11.6757 8.75677C12.1946 8.95136 12.7135 9.21082 13.2324 9.47028L7.97838 12.9081C7.52432 13.1676 7.39459 13.7514 7.71892 14.2054C7.91351 14.4649 8.17297 14.6595 8.4973 14.6595C8.69189 14.6595 8.82162 14.5946 9.01622 14.5297L15.1135 10.573C15.6973 10.9622 16.2162 11.2865 16.6703 11.6757L8.69189 16.0216C8.23784 16.2811 8.04324 16.8649 8.3027 17.3189C8.4973 17.6433 8.82162 17.8378 9.14595 17.8378C9.27568 17.8378 9.47027 17.773 9.6 17.7081L18.227 13.0378C18.5514 13.3622 18.8757 13.6865 19.2 14.0757C19.2649 14.2054 19.3946 14.3351 19.5243 14.4C19.6541 14.5297 19.7189 14.6595 19.7838 14.7243L13.5568 17.773C13.1027 17.9676 12.9081 18.5514 13.1027 19.0054C13.2324 19.3297 13.6216 19.5243 13.9459 19.5243C14.0757 19.5243 14.2054 19.5243 14.3351 19.4595L20.8865 16.2162C20.9514 16.346 21.0811 16.4757 21.1459 16.6703V16.7351C19.1351 16.9297 17.4486 18.1622 16.6054 19.9135L16.4108 19.7838C16.0216 19.4595 15.4378 19.5892 15.1135 19.9784C14.7892 20.3676 14.9189 20.9514 15.3081 21.2757L16.0865 21.8595C16.0865 21.9892 16.0865 22.1838 16.0865 22.3135C16.0865 22.573 16.0865 22.8973 16.1514 23.1568L11.8703 20.1081C11.4811 19.7838 10.8973 19.9135 10.573 20.3027C10.2486 20.6919 10.3784 21.2757 10.7676 21.6L16.7351 25.8811C16.3459 26.2054 15.8919 26.5297 15.5027 26.8541L10.2486 23.4811C9.79459 23.2216 9.21081 23.3514 8.95135 23.7405C8.69189 24.1946 8.82162 24.7784 9.21081 25.0378L14.0757 28.1514C13.9459 28.346 13.7514 28.4757 13.6216 28.6703H13.5568C13.3622 28.7351 13.2324 28.8649 13.1676 29.0595L9.01622 27.2433C8.56216 27.0487 7.97838 27.2433 7.78378 27.6973C7.58919 28.1514 7.78378 28.7351 8.23784 28.9297L12.1946 30.6811C11.8703 31.2 11.5459 31.7189 11.2216 32.3027L8.43243 31.1351C7.97838 30.9405 7.39459 31.2 7.2 31.6541C7.00541 32.1081 7.26486 32.6919 7.71892 32.8865L10.3784 33.9892C10.1838 34.4433 9.98919 34.8324 9.85946 35.2865L7.32973 34.8973C6.81081 34.8324 6.35676 35.1568 6.29189 35.6757C6.22703 36.1946 6.55135 36.6487 7.07027 36.7135L9.21081 37.0378C9.08108 37.4919 8.95135 37.946 8.82162 38.4649L6.61622 38.7892C6.0973 38.9189 5.77297 39.373 5.83784 39.8919C5.9027 40.346 6.29189 40.7351 6.74595 40.7351C6.81081 40.7351 6.81081 40.7351 6.87568 40.7351L8.43243 40.5405C8.36757 40.9297 8.3027 41.3189 8.23784 41.773C8.17297 42.2919 8.4973 42.746 9.01622 42.8108C9.08108 42.8108 9.08108 42.8108 9.14595 42.8108C9.6 42.8108 9.98919 42.4865 10.0541 42.0324C10.1838 41.2541 10.3135 40.4757 10.5081 39.7622C10.5081 39.6973 10.573 39.6324 10.573 39.5676C10.573 39.4378 10.6378 39.373 10.6378 39.2432L11.2865 40.346C11.4811 40.6703 11.8054 40.8 12.0649 40.8C12.1946 40.8 12.3892 40.7351 12.5189 40.6703C12.973 40.4108 13.1027 39.827 12.8432 39.373L11.2865 36.7135C11.4811 36.0649 11.7405 35.4162 12 34.8324L13.1027 37.6216C13.2324 38.0108 13.6216 38.2054 13.9459 38.2054C14.0757 38.2054 14.2054 38.2054 14.2703 38.1405C14.4 38.0757 14.4649 38.0757 14.5297 38.0108C11.6757 47.7405 11.6108 57.9243 11.6108 58.5081C11.6108 59.3514 12.3243 60.0649 13.1676 60.0649H22.7027C23.1568 60.0649 23.6108 59.8703 23.8703 59.546C24.1946 59.2216 24.3243 58.7676 24.2595 58.3135C22.573 47.3514 25.1676 37.8162 27.4378 32.173C28.0865 32.0432 28.7351 31.7838 29.2541 31.3946C29.3838 31.6541 29.5784 31.8487 29.9027 31.9135C29.9676 31.9135 30.0324 31.9135 30.0973 31.9135C30.5514 31.9135 30.8757 31.6541 31.0054 31.2L31.9784 27.0487C32.3676 26.9189 32.7568 26.7892 33.0811 26.5946C33.2108 26.6595 33.3405 26.7243 33.4703 26.8541L31.3946 34.2487C31.2649 34.7676 31.5243 35.2865 32.0432 35.4162C32.1081 35.4162 32.2378 35.4811 32.3027 35.4811C32.6919 35.4811 33.0811 35.2216 33.2108 34.7676L35.0919 27.8919C35.3513 28.1514 35.6757 28.346 35.9351 28.6054L33.9892 33.9243C33.7946 34.3784 34.0541 34.9622 34.573 35.0919C34.7027 35.1568 34.7676 35.1568 34.8973 35.1568C35.2865 35.1568 35.6108 34.8973 35.8054 34.573L37.427 30.1622C37.6216 30.4216 37.8162 30.6162 38.0108 30.8757L36.8432 34.7676C36.7135 35.2865 36.973 35.8054 37.4919 35.9351C37.5568 35.9351 37.6865 36 37.7514 36C38.1405 36 38.5297 35.7405 38.6595 35.3514L39.373 33.0162C39.5676 33.4703 39.827 33.8595 40.0216 34.3135L38.9189 36.7784C38.7243 37.2324 38.9189 37.8162 39.373 38.0108C39.5027 38.0757 39.6324 38.0757 39.7622 38.0757C40.0865 38.0757 40.4757 37.8811 40.6054 37.5568L40.9946 36.7784C40.9946 36.8433 41.0595 36.9081 41.0595 37.0378C41.2541 37.6865 41.4486 38.3351 41.5784 38.9838C41.7081 39.4378 42.0324 39.6973 42.4865 39.6973C42.5513 39.6973 42.6162 39.6973 42.6811 39.6973C43.2 39.5676 43.5243 39.0487 43.3946 38.5946C43.3297 38.2703 43.2649 37.9459 43.1351 37.6865L44.4324 37.7514C44.4324 37.7514 44.4324 37.7514 44.4973 37.7514C45.0162 37.7514 45.4054 37.3622 45.4054 36.8433C45.4054 36.3243 45.0162 35.8703 44.4973 35.8703L42.5513 35.8054C42.4216 35.4162 42.2919 35.0919 42.1622 34.7676L43.9784 34.3784C44.4973 34.2487 44.8216 33.7297 44.6919 33.2757C44.5622 32.7568 44.0432 32.4324 43.5892 32.5622L41.4486 33.0811C41.2541 32.7568 41.1243 32.4324 40.9297 32.1081L43.1351 30.9405C43.5892 30.6811 43.7838 30.1622 43.5243 29.7081C43.2649 29.2541 42.7459 29.0595 42.2919 29.3189L39.9568 30.4865C39.6973 30.0973 39.373 29.6433 39.1135 29.3189L42.3568 27.5027C42.8108 27.2433 42.9405 26.6595 42.7459 26.2054C42.4865 25.7514 41.9027 25.6216 41.4486 25.8162L37.9459 27.7622C37.8162 27.6324 37.7514 27.5676 37.5568 27.5027H37.4919C37.3622 27.373 37.2324 27.3081 37.1676 27.1784L41.1243 24.1297C41.5135 23.8054 41.5784 23.2216 41.3189 22.8324C40.9946 22.4433 40.4108 22.3784 40.0216 22.6378L35.6757 25.946C35.4162 25.7514 35.0919 25.5568 34.8324 25.3622C34.9622 25.1676 35.0919 25.0378 35.2216 24.8433L39.5676 21.146C39.9568 20.8216 40.0216 20.2378 39.6973 19.8487C39.373 19.4595 38.7892 19.3946 38.4 19.7189L36 21.4054C35.9351 18.3568 33.4703 15.9568 30.4216 15.9568C30.0973 15.9568 29.8378 15.9568 29.5135 16.0216C29.5784 15.827 29.6432 15.6973 29.773 15.5027C29.9027 15.373 29.9676 15.2433 29.9676 15.1135C30.0324 14.9838 30.0973 14.8541 30.1622 14.7243L36.4541 17.2541C36.5838 17.3189 36.7135 17.3189 36.7784 17.3189C37.1676 17.3189 37.4919 17.1243 37.6216 16.7351C37.8162 16.2811 37.5568 15.6973 37.1027 15.5027L31.0703 13.0378C31.1351 12.973 31.2 12.8433 31.2649 12.7784C31.3946 12.6487 31.4595 12.5838 31.5243 12.3892C31.7838 12.0649 32.0432 11.7406 32.3676 11.4162L40.8649 15.3081C40.9946 15.373 41.1243 15.373 41.2541 15.373C41.5784 15.373 41.9676 15.1784 42.0973 14.8541C42.2919 14.4 42.0973 13.8162 41.6432 13.6216L33.9243 10.1189C34.3135 9.72974 34.7676 9.40542 35.2216 9.01623L41.1892 12.3243C41.3189 12.3892 41.5135 12.4541 41.6432 12.4541C41.9676 12.4541 42.2919 12.2595 42.4865 12C42.7459 11.546 42.5513 10.9622 42.0973 10.7027L36.973 7.84866C37.3622 7.5892 37.8162 7.39461 38.2703 7.13515L42.6162 9.27569C42.7459 9.34055 42.8757 9.34055 43.0054 9.34055C43.3297 9.34055 43.6541 9.14596 43.8486 8.82163C44.0432 8.36758 43.9135 7.78379 43.3946 7.5892L40.4757 6.16217C41.1243 5.90271 41.8378 5.70812 42.6162 5.51352L45.3405 7.32974C45.4703 7.45947 45.6649 7.45947 45.8595 7.45947C46.1838 7.45947 46.4432 7.32974 46.6378 7.07028C46.8973 6.61623 46.8324 6.03244 46.3784 5.77298L45.1459 4.99461C46.1189 4.80001 47.1568 4.67028 48.2595 4.60542C48.7784 4.54055 49.1676 4.0865 49.1027 3.63244C49.0378 3.11352 48.5838 2.72434 48.1297 2.7892C47.6757 2.85407 47.2216 2.85407 46.7676 2.91893L47.0919 1.23244C47.2216 0.713525 46.8973 0.259471 46.3784 0.129741C45.8595 1.17049e-05 45.4054 0.324336 45.2757 0.843255L44.8216 3.17839C44.3027 3.24325 43.7189 3.37298 43.2 3.50271L43.0054 1.16758C42.9405 0.64866 42.4865 0.259471 42.0324 0.324336C41.5135 0.389201 41.1243 0.843255 41.1892 1.29731L41.3838 3.8919C40.8649 4.02163 40.3459 4.21623 39.8919 4.41082L38.9189 1.4919C38.7243 0.972984 38.2054 0.713525 37.7514 0.90812C37.2324 1.10271 36.973 1.62163 37.1676 2.07569L38.2054 5.12434C37.5568 5.44866 36.973 5.70812 36.3892 6.03244L34.7676 1.6865C34.573 1.23244 34.0541 0.972985 33.6 1.10271C33.1459 1.29731 32.8865 1.81623 33.0162 2.27028L34.7027 6.87569C34.5081 6.94055 34.3784 7.07028 34.2486 7.26488C34.2486 7.26488 34.2486 7.32974 34.1838 7.32974C33.9892 7.52433 33.7297 7.65406 33.5351 7.84866L30.6162 2.59461C30.3568 2.14055 29.773 2.01082 29.3189 2.20542C28.8649 2.40001 28.6703 3.04866 28.9297 3.50271L32.1081 9.27569C31.6541 9.72974 31.2649 10.1189 30.8757 10.573L26.7892 3.95677C26.5297 3.50271 25.9459 3.37298 25.4919 3.63244C25.2324 3.76217 25.1027 4.02163 25.0378 4.28109C24.973 4.21623 24.9081 4.21623 24.9081 4.15136C24.4541 3.8919 23.8703 4.0865 23.6757 4.54055L19.7838 11.9351C19.3297 11.4811 18.8757 11.027 18.3568 10.573L21.2757 4.21623C21.4703 3.76217 21.2757 3.17839 20.8216 2.98379C20.3676 2.7892 19.7838 2.9838 19.5892 3.43785L16.8649 9.40542C16.6054 9.21082 16.3459 9.08109 16.0865 8.8865C16.0865 8.82163 16.0865 8.82163 16.0216 8.75677C15.8919 8.56217 15.6973 8.43244 15.5027 8.36758L16.9946 3.30812C17.1243 2.7892 16.8649 2.27028 16.3459 2.14055C15.827 2.01082 15.3081 2.27028 15.1784 2.7892L13.8162 7.52433C13.1676 7.20001 12.4541 6.87569 11.6757 6.61623L12.5189 3.24325C12.6486 2.72434 12.3243 2.20542 11.8703 2.07569C11.3514 1.94596 10.8324 2.27028 10.7027 2.72434L9.85946 5.96758C9.27567 5.77298 8.69189 5.64325 8.10811 5.51352V2.59461C8.10811 2.07569 7.71892 1.6865 7.2 1.6865C6.68108 1.6865 6.29189 2.07569 6.29189 2.59461V5.1892C5.64324 5.25407 5.05946 5.1892 4.41081 5.12434L3.76216 2.59461C3.63243 2.14055 3.11351 1.81623 2.59459 1.94596C2.07568 2.07569 1.81622 2.59461 1.94595 3.11352L2.46486 4.99461C1.94595 4.92974 1.49189 4.92974 0.908108 4.92974C0.389189 4.92974 0 5.31893 0 5.83785C0 6.35677 0.389189 6.81082 0.908108 6.81082ZM28.0216 14.9838C27.7622 15.5027 27.5676 16.0216 27.373 16.4757L27.1135 16.0865L27.3081 15.6973C27.5676 15.2433 27.373 14.6595 26.9189 14.4649C26.6595 14.3351 26.3351 14.3351 26.0757 14.4649L25.6216 13.7514C25.427 13.427 25.1027 13.2973 24.7784 13.2973L25.7514 11.546L28.0216 14.9838ZM23.9351 32.3676C23.4811 33.5351 23.0919 34.8324 22.7027 36.2595C22.3784 37.4919 22.0541 38.8541 21.7297 40.2811C21.4703 41.5135 21.2757 42.8108 21.0811 44.173C20.8865 45.6649 20.7568 47.2865 20.6919 48.9081C20.627 50.2054 20.627 51.5027 20.6919 52.8C20.7568 54.0973 20.8216 55.4595 21.0162 56.8216H14.9189C14.9838 55.8487 15.0486 54.4216 15.1784 52.8C15.3081 51.6324 15.4378 50.2703 15.6324 48.9081C15.827 47.4162 16.0865 45.7946 16.4108 44.173C16.6703 42.8757 16.9297 41.5784 17.3189 40.2811C17.6432 38.9189 18.0973 37.6216 18.5514 36.2595C18.6162 36 18.7459 35.7405 18.8108 35.4811L19.0703 36.1946C19.0703 36.1946 19.0703 36.2595 19.1351 36.2595C19.2649 36.5838 19.5892 36.7784 19.9784 36.7784C20.1081 36.7784 20.173 36.7784 20.3027 36.7135C20.5622 36.6487 20.6919 36.4541 20.8216 36.2595C20.9513 36.0649 20.9513 35.8054 20.8216 35.546L19.8486 33.0162C19.9784 32.8216 20.0432 32.5622 20.173 32.3676C20.3676 31.9135 20.627 31.5243 20.8865 31.0703L21.2108 32.1081C21.2108 32.173 21.2757 32.3027 21.3405 32.3676C21.5351 32.627 21.7946 32.7568 22.1189 32.7568C22.1838 32.7568 22.3135 32.7568 22.4432 32.6919C22.6378 32.627 22.7676 32.4973 22.8973 32.3676C23.0919 32.1081 23.1568 31.8487 23.027 31.5243L22.8324 30.9405C23.2865 31.2649 23.7405 31.5243 24.2595 31.7189C24.0649 31.9784 24 32.173 23.9351 32.3676ZM21.7297 19.7838C22.7676 19.7838 23.6757 20.4324 24.0649 21.4054C22.6378 21.9892 21.4703 23.2216 20.9513 24.6487C19.9784 24.3243 19.2 23.4162 19.2 22.2487C19.2 20.8865 20.3027 19.7838 21.7297 19.7838ZM18.4865 26.8541C18.8108 27.0487 19.1351 27.2432 19.4595 27.4378C19.0703 28.0216 18.6811 28.5405 18.3568 29.1243L17.7081 27.373C17.9676 27.1784 18.227 26.9838 18.4865 26.8541ZM16.2162 28.6703L17.1892 31.2649C16.9297 31.7189 16.7351 32.2378 16.5405 32.6919L15.1784 29.8378C15.5027 29.4487 15.827 29.0595 16.2162 28.6703ZM26.2054 29.0595C24.8432 29.0595 23.6757 27.9568 23.6757 26.5297C23.6757 25.1676 24.7784 24 26.2054 24C27.5676 24 28.7351 25.1027 28.7351 26.5297C28.7351 27.9568 27.5676 29.0595 26.2054 29.0595ZM32.8865 21.6C32.8865 22.7027 32.173 23.6108 31.2 23.9351C30.4865 22.6378 29.3189 21.6649 27.9568 21.2108C28.1514 19.9784 29.1892 19.0703 30.4216 19.0703C31.7838 19.0703 32.8865 20.173 32.8865 21.6ZM24.0649 14.7243L24.973 16.2162L24.3892 17.3189C24.0649 17.1243 23.7405 16.9946 23.4162 16.9297C23.3513 16.7351 23.2216 16.6054 23.0919 16.4108L24.0649 14.7243ZM14.9189 36.8433L13.1676 32.5622C13.3622 32.173 13.6216 31.7838 13.8811 31.4595L15.5676 35.0919C15.373 35.6757 15.1135 36.3243 14.9189 36.973C14.9838 36.9081 14.9189 36.9081 14.9189 36.8433ZM25.2973 5.44866C25.3622 5.38379 25.3622 5.25407 25.3622 5.1892L29.6432 12.1297C29.3838 12.4541 29.1892 12.8433 28.9946 13.1676L26.0757 8.6919C25.8162 8.23785 25.2324 8.10812 24.7784 8.43244C24.3243 8.6919 24.1946 9.27569 24.5189 9.72974L24.5838 9.85947L21.9243 14.6595C21.6649 14.2703 21.3405 13.8811 21.0811 13.5568L25.2973 5.44866Z" fill="#00BB98"/>
</svg>
